<svg xmlns="http://www.w3.org/2000/svg" version="1.1" width="512" height="338">
<rect x="0" y="0" width="512" height="338" fill="#ffffff" />
<g transform="scale(2.000000) translate(0.5 0.5)">
<polygon fill="#9aff2f" fill-opacity="0.000000" points="208,60 67,56 68,117 36,112 111,5 "/>
<polygon fill="#8ef812" fill-opacity="0.262745" points="47,38 14,37 32,42 "/>
<polygon fill="#6ef4af" fill-opacity="0.294118" points="115,119 136,61 182,89 175,131 232,131 "/>
<polygon fill="#c46a75" fill-opacity="0.294118" points="107,71 145,109 74,116 94,4 180,122 "/>
<polygon fill="#f75796" fill-opacity="0.180392" points="100,70 121,114 31,94 148,58 "/>
<polygon fill="#c2d6df" fill-opacity="0.262745" points="236,146 158,123 105,128 147,29 251,166 "/>
<polygon fill="#afb98b" fill-opacity="0.247059" points="48,101 62,12 86,119 99,44 47,101 "/>
<polygon fill="#ffe4ff" fill-opacity="0.054902" points="146,54 64,80 99,80 195,40 "/>
<polygon fill="#fea01a" fill-opacity="0.152941" points="174,128 35,2 122,99 "/>
<polygon fill="#4cb9e0" fill-opacity="0.101961" points="171,135 36,20 125,115 63,26 "/>
<polygon fill="#1209bb" fill-opacity="0.207843" points="163,127 72,18 156,132 55,16 "/>
<polygon fill="#b3fd74" fill-opacity="0.517647" points="85,80 69,53 127,66 185,111 2,20 "/>
<polygon fill="#55f791" fill-opacity="0.294118" points="217,84 41,95 57,59 92,93 "/>
<polygon fill="#8f8079" fill-opacity="0.227451" points="159,56 112,64 50,50 "/>
<polygon fill="#c5d344" fill-opacity="0.121569" points="89,66 43,91 171,71 20,24 58,66 "/>
<polygon fill="#ff5855" fill-opacity="0.643137" points="33,142 49,135 136,64 "/>
<polygon fill="#1cc5b7" fill-opacity="0.258824" points="114,125 79,114 135,37 102,112 "/>
<polygon fill="#665533" fill-opacity="0.168627" points="132,69 112,76 134,53 143,119 "/>
<polygon fill="#7278ae" fill-opacity="0.231373" points="211,92 19,64 169,96 "/>
<polygon fill="#c8d97a" fill-opacity="0.294118" points="30,111 21,103 178,99 83,65 "/>
<polygon fill="#5b205c" fill-opacity="0.039216" points="44,3 211,115 48,107 159,5 "/>
<polygon fill="#158bf0" fill-opacity="0.121569" points="97,67 23,152 149,24 "/>
<polygon fill="#b0d340" fill-opacity="0.294118" points="231,69 44,134 64,65 228,142 144,99 "/>
<polygon fill="#cfff96" fill-opacity="0.094118" points="133,33 83,50 77,53 100,140 "/>
<polygon fill="#5cc81f" fill-opacity="0.294118" points="59,109 58,46 159,88 164,81 "/>
<polygon fill="#173810" fill-opacity="0.266667" points="174,63 132,99 141,78 "/>
<polygon fill="#974897" fill-opacity="0.000000" points="88,47 122,34 82,5 "/>
<polygon fill="#779bc0" fill-opacity="0.109804" points="191,105 76,93 76,135 89,4 188,138 "/>
<polygon fill="#fd2e42" fill-opacity="0.000000" points="131,119 119,107 73,29 122,80 48,46 "/>
<polygon fill="#8398ff" fill-opacity="0.098039" points="3,27 57,110 89,20 99,114 "/>
<polygon fill="#695206" fill-opacity="0.294118" points="71,11 66,145 28,3 191,23 "/>
<polygon fill="#53ed71" fill-opacity="0.294118" points="72,50 123,87 45,84 "/>
<polygon fill="#c0e39f" fill-opacity="0.145098" points="174,106 114,34 100,26 234,168 71,100 "/>
<polygon fill="#d6b18e" fill-opacity="0.294118" points="49,27 79,76 85,144 "/>
<polygon fill="#78bbff" fill-opacity="0.000000" points="203,27 160,110 134,61 140,163 "/>
<polygon fill="#95a1ee" fill-opacity="0.207843" points="3,85 20,159 139,92 139,4 74,149 "/>
<polygon fill="#ffff96" fill-opacity="0.294118" points="128,59 10,22 120,147 72,59 110,66 "/>
<polygon fill="#ffffe7" fill-opacity="0.000000" points="199,15 120,34 120,3 12,81 "/>
<polygon fill="#6d9aff" fill-opacity="0.258824" points="60,41 56,42 106,56 89,28 46,102 "/>
<polygon fill="#dcdb54" fill-opacity="0.168627" points="190,161 241,129 189,168 222,39 "/>
<polygon fill="#c84858" fill-opacity="0.000000" points="220,34 45,26 141,73 170,57 42,17 "/>
<polygon fill="#faff5f" fill-opacity="0.011765" points="178,114 157,99 31,74 123,105 "/>
<polygon fill="#d9de94" fill-opacity="0.219608" points="139,97 145,51 69,113 123,78 "/>
<polygon fill="#27ac5a" fill-opacity="0.035294" points="141,36 104,50 185,106 191,104 97,25 "/>
<polygon fill="#7de226" fill-opacity="0.243137" points="166,157 181,162 9,114 "/>
<polygon fill="#ff28d2" fill-opacity="0.282353" points="34,52 100,96 131,124 "/>
<polygon fill="#00ff93" fill-opacity="0.172549" points="5,3 42,101 235,98 50,1 "/>
<polygon fill="#b2f9d6" fill-opacity="0.239216" points="48,158 93,43 147,98 8,154 65,100 "/>
<polygon fill="#9bffc7" fill-opacity="0.078431" points="227,37 23,77 105,40 "/>
<polygon fill="#3ae1ac" fill-opacity="0.294118" points="111,141 111,76 131,49 0,23 "/>
<polygon fill="#38503c" fill-opacity="0.227451" points="205,74 212,44 156,136 48,21 181,87 "/>
<polygon fill="#8cd5a3" fill-opacity="0.219608" points="178,97 95,106 154,100 "/>
<polygon fill="#f4b162" fill-opacity="0.294118" points="45,2 93,13 180,58 "/>
<polygon fill="#0e0212" fill-opacity="0.231373" points="155,47 113,70 78,53 64,49 "/>
<polygon fill="#ffd9d8" fill-opacity="0.168627" points="53,72 12,24 204,32 199,85 "/>
<polygon fill="#40caff" fill-opacity="0.258824" points="209,110 141,69 141,92 62,54 "/>
<polygon fill="#67335c" fill-opacity="0.000000" points="8,2 94,80 155,51 28,111 97,40 "/>
<polygon fill="#963bf4" fill-opacity="0.196078" points="6,61 95,148 71,113 145,132 44,30 "/>
<polygon fill="#3954b4" fill-opacity="0.294118" points="133,123 66,28 123,96 "/>
<polygon fill="#ff59ca" fill-opacity="0.149020" points="43,59 175,94 51,35 175,164 138,44 "/>
<polygon fill="#d0ffcb" fill-opacity="0.290196" points="1,51 231,48 124,5 80,146 "/>
<polygon fill="#b365fa" fill-opacity="0.035294" points="17,15 116,104 47,49 "/>
<polygon fill="#8cff5b" fill-opacity="0.000000" points="205,134 110,62 193,88 175,50 105,93 "/>
<polygon fill="#8a9f1e" fill-opacity="0.180392" points="121,8 21,72 6,13 "/>
<polygon fill="#ffefa9" fill-opacity="0.341176" points="21,141 72,12 32,97 97,1 49,93 "/>
<polygon fill="#a2b5c9" fill-opacity="0.254902" points="135,69 107,134 107,111 91,73 189,73 "/>
<polygon fill="#4d42ff" fill-opacity="0.000000" points="92,56 39,52 88,78 "/>
<polygon fill="#4b70ff" fill-opacity="0.294118" points="60,101 10,71 241,105 98,91 87,116 "/>
<polygon fill="#2c1dff" fill-opacity="0.090196" points="127,52 199,28 128,17 54,16 207,26 "/>
<polygon fill="#a7ff61" fill-opacity="0.023529" points="207,76 28,38 55,110 86,25 87,3 "/>
<polygon fill="#19d557" fill-opacity="0.000000" points="80,78 11,144 245,101 77,38 55,58 "/>
<polygon fill="#c07b00" fill-opacity="0.000000" points="157,108 80,66 116,64 "/>
<polygon fill="#87cfe3" fill-opacity="0.274510" points="77,57 100,6 40,2 "/>
<polygon fill="#bdc5f1" fill-opacity="0.498039" points="181,92 75,66 176,94 "/>
<polygon fill="#6cfb78" fill-opacity="0.294118" points="61,103 86,137 114,26 105,41 89,127 "/>
<polygon fill="#ac807a" fill-opacity="0.223529" points="56,47 98,34 81,60 26,105 111,25 "/>
<polygon fill="#e9ff60" fill-opacity="0.203922" points="160,70 100,120 84,124 57,17 "/>
<polygon fill="#ce47f9" fill-opacity="0.278431" points="160,16 14,12 191,118 116,79 59,50 "/>
<polygon fill="#ae78e0" fill-opacity="0.294118" points="220,156 168,129 176,115 135,117 "/>
<polygon fill="#94d6ab" fill-opacity="0.223529" points="223,84 102,85 125,93 106,109 "/>
<polygon fill="#eb8dd5" fill-opacity="0.294118" points="137,74 85,148 201,68 164,71 18,2 "/>
<polygon fill="#2798a6" fill-opacity="0.070588" points="108,87 82,145 179,58 110,73 106,66 "/>
<polygon fill="#b3caff" fill-opacity="0.129412" points="15,154 112,146 153,43 60,96 233,135 "/>
<polygon fill="#04c4d3" fill-opacity="0.003922" points="93,33 90,38 168,134 96,44 21,162 "/>
<polygon fill="#d69131" fill-opacity="0.286275" points="153,68 207,95 171,84 "/>
<polygon fill="#e62efa" fill-opacity="0.184314" points="12,29 77,36 68,115 132,39 "/>
<polygon fill="#741c03" fill-opacity="0.109804" points="94,83 147,59 174,108 "/>
<polygon fill="#93f097" fill-opacity="0.290196" points="127,10 111,50 119,8 162,18 "/>
<polygon fill="#6da2be" fill-opacity="0.113725" points="88,40 90,91 1,15 "/>
<polygon fill="#5e0d3a" fill-opacity="0.294118" points="162,86 169,97 29,83 "/>
<polygon fill="#ad23d0" fill-opacity="0.219608" points="158,69 157,108 161,33 142,128 "/>
<polygon fill="#f4afff" fill-opacity="0.133333" points="70,162 67,70 235,5 30,76 "/>
<polygon fill="#1096f6" fill-opacity="0.000000" points="147,67 32,141 183,40 49,160 "/>
<polygon fill="#3f2b28" fill-opacity="0.286275" points="98,0 69,124 132,62 9,42 75,142 "/>
<polygon fill="#9aaf52" fill-opacity="0.117647" points="82,120 171,104 54,65 94,138 101,15 "/>
<polygon fill="#ff5d73" fill-opacity="0.294118" points="137,55 187,160 49,7 63,130 136,31 "/>
<polygon fill="#bac77e" fill-opacity="0.137255" points="183,50 71,82 148,49 16,40 56,55 "/>
<polygon fill="#dcff58" fill-opacity="0.294118" points="17,45 118,14 49,131 "/>
<polygon fill="#3f9b96" fill-opacity="0.211765" points="45,158 209,91 95,130 105,137 73,147 "/>
<polygon fill="#c37f37" fill-opacity="0.098039" points="183,58 15,130 72,106 "/>
<polygon fill="#67ffff" fill-opacity="0.294118" points="8,89 59,127 206,88 "/>
<polygon fill="#c4ce42" fill-opacity="0.192157" points="19,139 150,97 87,92 58,118 "/>
<polygon fill="#76d15c" fill-opacity="0.294118" points="125,95 55,57 81,28 169,58 51,40 "/>
<polygon fill="#f01e52" fill-opacity="0.207843" points="135,16 110,9 132,161 128,131 58,168 "/>
<polygon fill="#ec90ff" fill-opacity="0.011765" points="254,102 50,69 196,133 195,148 81,22 "/>
<polygon fill="#db671f" fill-opacity="0.105882" points="58,61 129,147 45,5 49,59 11,96 "/>
<polygon fill="#ff45ff" fill-opacity="0.184314" points="164,44 52,66 173,125 "/>
<polygon fill="#c18117" fill-opacity="0.294118" points="32,45 120,83 118,86 "/>
<polygon fill="#477ef7" fill-opacity="0.149020" points="62,114 172,69 47,116 "/>
<polygon fill="#8ff18a" fill-opacity="0.133333" points="221,66 67,56 231,70 66,125 "/>
<polygon fill="#94c0d0" fill-opacity="0.294118" points="213,12 21,161 133,72 "/>
<polygon fill="#df9fd5" fill-opacity="0.294118" points="107,146 120,14 4,23 57,87 "/>
<polygon fill="#b3ffdb" fill-opacity="0.286275" points="30,152 107,71 91,75 24,99 71,36 "/>
<polygon fill="#3f53ff" fill-opacity="0.294118" points="162,57 115,89 117,33 "/>
<polygon fill="#b9c6ff" fill-opacity="0.294118" points="74,91 27,141 252,163 229,134 159,167 "/>
<polygon fill="#acc69e" fill-opacity="0.015686" points="64,153 228,107 141,137 141,83 203,20 "/>
<polygon fill="#cb3dff" fill-opacity="0.156863" points="167,42 77,28 48,43 "/>
<polygon fill="#ad9cc6" fill-opacity="0.129412" points="167,72 169,99 127,107 "/>
<polygon fill="#7f9c92" fill-opacity="0.043137" points="74,104 54,19 82,95 108,48 126,81 "/>
<polygon fill="#d7f94d" fill-opacity="0.294118" points="32,117 115,16 255,166 176,79 "/>
<polygon fill="#fd456d" fill-opacity="0.294118" points="102,133 115,45 115,59 "/>
<polygon fill="#d21944" fill-opacity="0.564706" points="178,88 84,80 61,133 "/>
<polygon fill="#fcfa38" fill-opacity="0.094118" points="192,65 133,23 153,36 "/>
<polygon fill="#da7ef5" fill-opacity="0.164706" points="57,146 139,3 41,34 "/>
<polygon fill="#1dbdff" fill-opacity="0.294118" points="90,90 170,26 162,40 "/>
<polygon fill="#8cee57" fill-opacity="0.266667" points="202,103 97,57 223,87 68,70 177,74 "/>
<polygon fill="#ff64ff" fill-opacity="0.317647" points="124,55 217,1 55,113 10,19 134,146 "/>
<polygon fill="#e5d053" fill-opacity="0.294118" points="190,103 22,26 246,109 158,77 "/>
<polygon fill="#660224" fill-opacity="0.349020" points="119,64 57,12 175,102 64,121 "/>
<polygon fill="#dcffb1" fill-opacity="0.294118" points="35,1 4,93 228,125 131,25 "/>
<polygon fill="#e633d2" fill-opacity="0.031373" points="181,79 230,91 242,155 230,127 255,125 "/>
<polygon fill="#fffffd" fill-opacity="0.294118" points="244,99 92,147 202,2 "/>
<polygon fill="#ff2fff" fill-opacity="0.294118" points="147,50 128,125 87,19 100,86 "/>
<polygon fill="#6526ca" fill-opacity="0.250980" points="53,60 106,105 86,104 "/>
<polygon fill="#ffff29" fill-opacity="0.392157" points="88,99 72,62 65,108 234,108 "/>
<polygon fill="#09ff47" fill-opacity="0.294118" points="164,82 21,109 201,87 222,98 135,42 "/>
<polygon fill="#9b9e3a" fill-opacity="0.109804" points="96,67 143,54 75,120 127,76 228,73 "/>
<polygon fill="#cc6bfc" fill-opacity="0.380392" points="87,82 119,99 18,132 196,73 167,97 "/>
<polygon fill="#ff91c2" fill-opacity="0.290196" points="103,50 115,82 158,146 93,111 9,26 "/>
<polygon fill="#f75e53" fill-opacity="0.168627" points="157,93 73,97 141,81 "/>
<polygon fill="#98baff" fill-opacity="0.239216" points="242,96 13,125 222,109 245,165 "/>
<polygon fill="#3676a1" fill-opacity="0.196078" points="150,70 78,43 152,95 128,0 "/>
<polygon fill="#dd90ff" fill-opacity="0.172549" points="1,63 241,12 198,44 66,4 212,143 "/>
<polygon fill="#5fa9d1" fill-opacity="0.098039" points="115,115 131,98 151,62 "/>
<polygon fill="#822700" fill-opacity="0.105882" points="62,62 7,120 52,74 82,47 "/>
<polygon fill="#9786a6" fill-opacity="0.203922" points="98,40 100,166 70,43 63,118 "/>
<polygon fill="#ca7073" fill-opacity="0.247059" points="172,61 76,126 101,56 55,51 "/>
<polygon fill="#d90928" fill-opacity="0.164706" points="159,11 131,122 158,34 185,155 "/>
<polygon fill="#a99a74" fill-opacity="0.000000" points="24,15 199,133 108,69 "/>
<polygon fill="#844204" fill-opacity="0.184314" points="132,42 54,71 116,43 216,35 "/>
<polygon fill="#460c67" fill-opacity="0.000000" points="134,132 43,42 132,98 121,107 97,43 "/>
<polygon fill="#28ff15" fill-opacity="0.086275" points="86,105 83,93 143,98 141,90 45,93 "/>
<polygon fill="#34508f" fill-opacity="0.454902" points="86,79 146,89 71,129 118,105 "/>
<polygon fill="#3fd5e6" fill-opacity="0.149020" points="126,80 21,100 199,122 216,96 6,103 "/>
<polygon fill="#a9ffff" fill-opacity="0.313725" points="184,121 29,125 219,121 178,22 97,7 "/>
<polygon fill="#2170ff" fill-opacity="0.176471" points="63,67 205,143 118,128 163,139 "/>
<polygon fill="#575b9a" fill-opacity="0.160784" points="232,76 51,62 253,71 65,135 130,129 "/>
<polygon fill="#bc1642" fill-opacity="0.282353" points="42,37 163,99 52,15 209,92 110,25 "/>
<polygon fill="#f4a37d" fill-opacity="0.388235" points="131,121 115,108 78,9 130,150 35,55 "/>
<polygon fill="#029b87" fill-opacity="0.000000" points="196,98 58,11 212,111 148,71 "/>
<polygon fill="#87328f" fill-opacity="0.282353" points="173,165 249,27 189,141 237,7 "/>
<polygon fill="#ff98ff" fill-opacity="0.294118" points="232,99 215,59 11,128 "/>
<polygon fill="#afbeaa" fill-opacity="0.498039" points="106,75 208,57 113,73 191,47 "/>
<polygon fill="#cfe0fb" fill-opacity="0.509804" points="57,145 181,19 6,8 "/>
<polygon fill="#55b7ad" fill-opacity="0.113725" points="90,147 215,70 32,139 115,135 "/>
<polygon fill="#ff4dc6" fill-opacity="0.203922" points="65,136 120,74 173,113 117,22 "/>
<polygon fill="#f61ebf" fill-opacity="0.125490" points="218,129 86,91 76,19 "/>
<polygon fill="#fcffff" fill-opacity="0.584314" points="52,2 20,120 230,25 "/>
<polygon fill="#b8f0ff" fill-opacity="0.301961" points="180,141 201,60 129,101 "/>
<polygon fill="#514382" fill-opacity="0.031373" points="139,99 159,49 40,113 "/>
<polygon fill="#7bfc54" fill-opacity="0.152941" points="169,53 35,64 112,128 61,95 "/>
<polygon fill="#4f2116" fill-opacity="0.070588" points="86,30 39,155 115,54 "/>
<polygon fill="#0a27eb" fill-opacity="0.294118" points="197,78 148,90 53,83 23,73 115,94 "/>
<polygon fill="#ff26ff" fill-opacity="0.145098" points="174,135 28,31 55,41 97,106 "/>
<polygon fill="#9d84e4" fill-opacity="0.000000" points="160,86 237,51 0,55 24,29 "/>
<polygon fill="#a9dbeb" fill-opacity="0.576471" points="136,34 69,66 187,168 233,73 "/>
<polygon fill="#f4ae56" fill-opacity="0.188235" points="205,136 222,104 88,17 225,108 115,140 "/>
<polygon fill="#9fccd8" fill-opacity="0.168627" points="65,6 51,10 126,72 120,160 130,66 "/>
<polygon fill="#c56457" fill-opacity="0.423529" points="134,62 13,63 69,61 51,143 118,111 "/>
<polygon fill="#d64800" fill-opacity="0.160784" points="173,81 35,118 93,47 46,34 157,44 "/>
<polygon fill="#b3feb3" fill-opacity="0.294118" points="193,149 131,6 182,132 87,110 54,137 "/>
<polygon fill="#6253c5" fill-opacity="0.101961" points="135,154 140,148 27,151 1,125 "/>
<polygon fill="#ffc4c4" fill-opacity="0.294118" points="244,150 72,145 133,8 "/>
<polygon fill="#e2c2ef" fill-opacity="0.294118" points="57,121 141,161 170,151 250,76 "/>
<polygon fill="#ff3b00" fill-opacity="0.125490" points="208,26 140,70 193,66 136,84 19,147 "/>
<polygon fill="#871450" fill-opacity="0.568627" points="146,38 123,113 78,143 77,54 "/>
<polygon fill="#ff78ff" fill-opacity="0.333333" points="30,107 114,166 91,87 7,111 "/>
<polygon fill="#ffd6ff" fill-opacity="0.294118" points="19,59 40,153 126,163 114,127 "/>
<polygon fill="#650000" fill-opacity="0.439216" points="139,94 96,120 72,50 177,155 141,121 "/>
<polygon fill="#754513" fill-opacity="0.294118" points="144,108 36,64 121,48 29,136 "/>
<polygon fill="#588bfe" fill-opacity="0.203922" points="16,12 132,54 64,31 108,35 167,50 "/>
<polygon fill="#fff5ba" fill-opacity="0.431373" points="105,109 205,140 191,9 148,63 "/>
<polygon fill="#481e7d" fill-opacity="0.184314" points="22,154 231,44 114,70 22,154 "/>
<polygon fill="#2a9eb9" fill-opacity="0.000000" points="127,124 26,3 68,45 "/>
<polygon fill="#2f7fff" fill-opacity="0.098039" points="123,165 109,132 65,159 "/>
<polygon fill="#50803b" fill-opacity="0.113725" points="205,32 116,120 29,135 "/>
<polygon fill="#92012b" fill-opacity="0.360784" points="26,52 92,86 64,143 116,102 "/>
<polygon fill="#c784bf" fill-opacity="0.000000" points="142,111 217,152 12,47 192,144 "/>
<polygon fill="#ff344e" fill-opacity="0.129412" points="52,119 165,13 174,124 230,89 81,134 "/>
<polygon fill="#3bffbf" fill-opacity="0.294118" points="131,99 44,165 50,77 "/>
</g>
</svg>