<svg xmlns="http://www.w3.org/2000/svg" version="1.1" width="512" height="338">
<rect x="0" y="0" width="512" height="338" fill="#ffffff" />
<g transform="scale(2.000000) translate(0.5 0.5)">
<polygon fill="#000000" fill-opacity="1.000000" points="73,75 41,34 73,81 22,19 "/>
<polygon fill="#5e78ff" fill-opacity="0.058824" points="3,168 3,23 53,169 "/>
<polygon fill="#89a8ff" fill-opacity="0.435294" points="239,108 111,67 242,122 "/>
<polygon fill="#222a1a" fill-opacity="0.466667" points="39,65 166,93 238,77 156,81 141,43 "/>
<polygon fill="#746049" fill-opacity="0.243137" points="84,71 111,37 184,64 36,136 154,100 "/>
<polygon fill="#2066b4" fill-opacity="0.141176" points="102,145 2,151 219,32 87,135 221,34 "/>
<polygon fill="#79573f" fill-opacity="0.788235" points="59,94 160,130 122,55 172,21 "/>
<polygon fill="#d90029" fill-opacity="0.807843" points="84,119 137,138 117,39 139,44 123,56 "/>
<polygon fill="#06032a" fill-opacity="0.878431" points="184,102 101,38 53,67 "/>
<polygon fill="#f2e423" fill-opacity="0.000000" points="111,24 77,164 160,166 62,169 "/>
<polygon fill="#6e9821" fill-opacity="0.317647" points="51,135 136,91 107,83 "/>
<polygon fill="#ed289b" fill-opacity="0.003922" points="121,165 101,158 118,81 8,164 "/>
<polygon fill="#45cfef" fill-opacity="0.000000" points="86,159 131,106 223,37 138,68 217,54 "/>
<polygon fill="#e32e6e" fill-opacity="0.000000" points="188,110 213,103 216,120 "/>
<polygon fill="#2c6fa3" fill-opacity="0.196078" points="203,144 250,154 255,123 "/>
<polygon fill="#00d182" fill-opacity="0.372549" points="45,150 118,84 92,124 229,47 "/>
<polygon fill="#a62dff" fill-opacity="0.007843" points="61,97 198,65 85,117 200,126 222,154 "/>
<polygon fill="#44ffe4" fill-opacity="0.000000" points="165,165 42,63 111,150 133,102 "/>
<polygon fill="#d6c199" fill-opacity="0.000000" points="149,134 244,13 191,117 "/>
<polygon fill="#afc673" fill-opacity="0.101961" points="214,154 206,101 223,80 144,129 126,101 "/>
<polygon fill="#007b95" fill-opacity="0.776471" points="74,127 19,149 226,71 "/>
<polygon fill="#ffffff" fill-opacity="0.890196" points="224,50 39,149 247,132 "/>
<polygon fill="#685cac" fill-opacity="0.003922" points="99,136 67,124 93,62 59,87 44,66 "/>
<polygon fill="#258f50" fill-opacity="0.650980" points="57,78 118,149 82,70 "/>
<polygon fill="#97abff" fill-opacity="0.035294" points="190,120 248,28 140,115 137,93 224,133 "/>
<polygon fill="#c48634" fill-opacity="0.000000" points="213,5 2,159 189,81 198,106 204,109 "/>
<polygon fill="#f9ffff" fill-opacity="1.000000" points="101,129 121,101 88,58 73,92 125,124 "/>
<polygon fill="#ff2036" fill-opacity="1.000000" points="87,45 123,39 115,141 "/>
<polygon fill="#ffffff" fill-opacity="0.149020" points="235,159 214,34 212,82 87,94 18,94 "/>
<polygon fill="#472000" fill-opacity="0.184314" points="186,86 8,149 146,75 206,50 72,128 "/>
<polygon fill="#c4ff6b" fill-opacity="0.000000" points="207,58 116,22 229,156 129,26 "/>
<polygon fill="#b91976" fill-opacity="0.294118" points="193,50 198,54 226,133 "/>
<polygon fill="#00885b" fill-opacity="0.274510" points="177,4 28,36 26,54 8,1 "/>
<polygon fill="#fffffb" fill-opacity="0.431373" points="11,150 203,37 103,108 186,144 139,33 "/>
<polygon fill="#006956" fill-opacity="0.211765" points="90,34 1,9 1,53 "/>
<polygon fill="#ffcbd1" fill-opacity="0.000000" points="115,151 104,66 115,128 234,72 "/>
<polygon fill="#9d89fc" fill-opacity="0.156863" points="166,70 124,161 189,78 181,95 "/>
<polygon fill="#b01d9a" fill-opacity="0.000000" points="210,52 255,53 52,120 198,117 65,117 "/>
<polygon fill="#1177fe" fill-opacity="0.000000" points="2,161 191,114 166,123 166,44 6,159 "/>
<polygon fill="#003400" fill-opacity="0.341176" points="99,117 53,84 124,29 125,140 131,85 "/>
<polygon fill="#b596ff" fill-opacity="0.000000" points="253,38 152,126 213,129 245,133 185,56 "/>
<polygon fill="#ffffff" fill-opacity="0.768627" points="166,54 59,163 205,120 72,106 "/>
<polygon fill="#f5524b" fill-opacity="1.000000" points="214,63 115,43 123,55 163,95 163,89 "/>
<polygon fill="#936f9c" fill-opacity="0.219608" points="30,49 10,8 110,94 59,46 39,14 "/>
<polygon fill="#e53831" fill-opacity="0.435294" points="138,149 109,50 179,71 141,45 "/>
<polygon fill="#a7abff" fill-opacity="0.000000" points="80,147 240,50 246,141 52,161 "/>
<polygon fill="#ff0000" fill-opacity="0.792157" points="90,57 126,38 162,79 "/>
<polygon fill="#e8ffff" fill-opacity="0.250980" points="174,4 114,115 137,129 89,118 "/>
<polygon fill="#ffffff" fill-opacity="0.349020" points="231,18 171,0 93,3 184,112 "/>
<polygon fill="#ffffff" fill-opacity="0.333333" points="123,78 226,146 125,69 19,121 "/>
<polygon fill="#ffe1ff" fill-opacity="0.627451" points="204,119 65,101 109,60 224,143 "/>
<polygon fill="#64ffa1" fill-opacity="0.215686" points="55,98 114,110 67,82 137,79 "/>
<polygon fill="#b47fae" fill-opacity="0.000000" points="184,126 43,164 145,125 211,124 87,119 "/>
<polygon fill="#719376" fill-opacity="0.137255" points="146,28 7,0 87,4 55,22 "/>
<polygon fill="#eca6ff" fill-opacity="0.254902" points="224,102 161,69 216,55 173,76 "/>
<polygon fill="#320000" fill-opacity="0.156863" points="91,53 128,91 29,43 155,91 "/>
<polygon fill="#f500ff" fill-opacity="0.000000" points="86,1 200,91 127,30 "/>
<polygon fill="#ffffff" fill-opacity="0.000000" points="191,138 162,90 63,53 96,54 19,74 "/>
<polygon fill="#aaf8e1" fill-opacity="0.000000" points="168,141 65,168 139,151 "/>
<polygon fill="#7d99ce" fill-opacity="0.203922" points="210,52 131,89 241,76 106,163 246,169 "/>
<polygon fill="#e60000" fill-opacity="0.627451" points="191,58 170,75 80,53 "/>
<polygon fill="#ffe76a" fill-opacity="0.000000" points="123,33 146,132 104,37 250,112 143,49 "/>
<polygon fill="#ff00ff" fill-opacity="0.713725" points="113,126 77,78 208,73 "/>
<polygon fill="#35a000" fill-opacity="0.141176" points="117,70 37,147 28,155 "/>
<polygon fill="#ff0000" fill-opacity="0.498039" points="112,34 132,68 82,51 "/>
<polygon fill="#908ed8" fill-opacity="0.000000" points="137,97 204,168 228,58 "/>
<polygon fill="#415552" fill-opacity="0.070588" points="24,145 217,10 61,122 88,118 "/>
<polygon fill="#ac9bff" fill-opacity="0.086275" points="24,150 13,137 201,111 134,129 "/>
<polygon fill="#6a59fd" fill-opacity="0.011765" points="12,111 2,162 109,130 "/>
<polygon fill="#2782a8" fill-opacity="0.058824" points="135,9 32,14 14,110 5,15 "/>
<polygon fill="#9a846a" fill-opacity="0.160784" points="0,64 0,5 90,3 "/>
<polygon fill="#580000" fill-opacity="0.250980" points="47,55 134,144 120,109 184,66 "/>
<polygon fill="#8dd1cb" fill-opacity="0.094118" points="134,31 2,26 14,48 77,165 8,14 "/>
<polygon fill="#fffaff" fill-opacity="1.000000" points="124,98 197,36 198,107 "/>
<polygon fill="#c1fd6c" fill-opacity="0.105882" points="200,81 83,50 171,66 "/>
<polygon fill="#000900" fill-opacity="0.454902" points="127,109 100,121 23,17 "/>
<polygon fill="#90b0c2" fill-opacity="0.168627" points="253,73 243,167 43,127 255,153 242,98 "/>
<polygon fill="#b07a00" fill-opacity="0.164706" points="94,85 229,73 207,97 36,134 121,87 "/>
<polygon fill="#238d51" fill-opacity="0.184314" points="118,76 230,138 113,67 255,158 244,169 "/>
<polygon fill="#17641b" fill-opacity="0.274510" points="232,70 125,111 163,113 71,127 "/>
<polygon fill="#ffffff" fill-opacity="0.682353" points="113,106 185,152 158,163 "/>
<polygon fill="#171f2c" fill-opacity="0.000000" points="241,47 137,120 179,127 50,72 130,96 "/>
<polygon fill="#3bbb4c" fill-opacity="0.000000" points="219,67 26,143 148,70 5,125 183,73 "/>
<polygon fill="#c53904" fill-opacity="0.298039" points="65,88 191,118 55,63 123,120 67,51 "/>
<polygon fill="#710c13" fill-opacity="0.564706" points="217,106 129,93 69,100 "/>
<polygon fill="#9d0000" fill-opacity="0.403922" points="79,97 121,78 157,91 "/>
<polygon fill="#e413ad" fill-opacity="0.000000" points="41,39 145,144 129,45 84,97 "/>
<polygon fill="#003e1d" fill-opacity="0.082353" points="108,144 187,77 40,123 "/>
<polygon fill="#ffffe2" fill-opacity="1.000000" points="149,85 95,131 162,124 30,37 "/>
<polygon fill="#180802" fill-opacity="0.062745" points="119,134 8,137 155,85 70,137 174,141 "/>
<polygon fill="#7caf22" fill-opacity="0.070588" points="157,102 230,17 255,168 90,169 199,152 "/>
<polygon fill="#36703d" fill-opacity="0.286275" points="120,107 176,56 27,151 "/>
<polygon fill="#ffffff" fill-opacity="0.678431" points="251,81 114,166 162,101 161,18 "/>
<polygon fill="#18bcff" fill-opacity="0.000000" points="250,76 106,97 109,108 180,85 184,61 "/>
<polygon fill="#f5ffff" fill-opacity="0.286275" points="25,36 114,64 29,20 "/>
<polygon fill="#f3ffff" fill-opacity="0.000000" points="135,58 219,91 124,52 106,145 26,158 "/>
<polygon fill="#ffffff" fill-opacity="0.380392" points="140,30 245,138 116,13 61,61 "/>
<polygon fill="#1cff13" fill-opacity="0.000000" points="69,54 24,75 219,97 154,103 255,77 "/>
<polygon fill="#006415" fill-opacity="0.356863" points="42,60 150,65 152,116 "/>
<polygon fill="#730e00" fill-opacity="0.000000" points="76,70 236,27 37,134 43,144 127,106 "/>
<polygon fill="#fc0012" fill-opacity="0.000000" points="91,102 183,110 102,27 "/>
<polygon fill="#3af2ff" fill-opacity="0.000000" points="169,166 161,153 1,31 26,164 50,63 "/>
<polygon fill="#000000" fill-opacity="0.184314" points="20,140 149,82 175,146 169,79 "/>
<polygon fill="#80597b" fill-opacity="0.000000" points="247,12 151,156 231,56 254,17 "/>
<polygon fill="#0dbdf8" fill-opacity="0.000000" points="136,97 73,125 137,66 "/>
<polygon fill="#0ca1f4" fill-opacity="0.011765" points="0,155 85,162 15,130 "/>
<polygon fill="#c691ff" fill-opacity="0.015686" points="249,158 254,38 248,4 42,134 210,38 "/>
<polygon fill="#d63429" fill-opacity="0.701961" points="147,54 47,67 90,41 "/>
<polygon fill="#d30000" fill-opacity="0.109804" points="148,36 162,145 147,58 155,2 155,8 "/>
<polygon fill="#000000" fill-opacity="0.172549" points="147,50 61,106 187,74 43,69 "/>
<polygon fill="#a385ff" fill-opacity="0.000000" points="194,21 200,18 213,57 237,104 "/>
<polygon fill="#df4519" fill-opacity="0.000000" points="213,9 212,23 147,143 "/>
<polygon fill="#deffff" fill-opacity="0.141176" points="254,46 232,160 80,47 198,130 216,49 "/>
<polygon fill="#fff4ff" fill-opacity="0.584314" points="90,75 177,98 0,21 146,110 "/>
<polygon fill="#ff7a32" fill-opacity="0.215686" points="51,82 174,74 214,76 242,87 "/>
<polygon fill="#ff0000" fill-opacity="0.043137" points="163,60 96,101 155,125 172,127 "/>
<polygon fill="#6ba4b5" fill-opacity="0.274510" points="60,20 27,50 13,5 109,9 20,3 "/>
<polygon fill="#ffff00" fill-opacity="0.000000" points="66,99 201,80 239,53 132,147 "/>
<polygon fill="#ff050e" fill-opacity="0.435294" points="99,78 96,97 196,61 186,69 "/>
<polygon fill="#c20012" fill-opacity="0.203922" points="135,76 55,82 95,38 185,72 "/>
<polygon fill="#ffffff" fill-opacity="0.439216" points="18,24 147,4 151,41 8,115 36,139 "/>
<polygon fill="#e95cff" fill-opacity="0.000000" points="226,166 18,167 253,19 "/>
<polygon fill="#abb6a7" fill-opacity="0.313725" points="240,166 162,167 195,9 150,149 "/>
<polygon fill="#000000" fill-opacity="0.301961" points="104,54 39,91 201,32 105,65 "/>
<polygon fill="#00671e" fill-opacity="0.007843" points="39,21 21,22 243,125 141,111 "/>
<polygon fill="#ffc2ff" fill-opacity="0.086275" points="165,167 20,148 131,129 112,51 208,80 "/>
<polygon fill="#420000" fill-opacity="0.074510" points="74,74 112,45 41,94 152,27 "/>
<polygon fill="#15701a" fill-opacity="0.384314" points="40,58 153,97 133,157 147,111 "/>
<polygon fill="#12b5b7" fill-opacity="0.074510" points="250,160 130,56 242,128 252,115 "/>
<polygon fill="#fa2b39" fill-opacity="0.627451" points="198,63 134,63 153,45 74,53 96,100 "/>
<polygon fill="#d44e00" fill-opacity="0.000000" points="154,139 86,62 111,34 "/>
<polygon fill="#463b00" fill-opacity="0.254902" points="168,127 75,136 191,112 88,55 62,76 "/>
<polygon fill="#ff0000" fill-opacity="0.105882" points="132,45 77,43 100,154 "/>
<polygon fill="#31528d" fill-opacity="0.152941" points="16,139 244,80 132,84 "/>
<polygon fill="#ff1d00" fill-opacity="0.164706" points="205,25 129,96 157,95 121,78 91,151 "/>
<polygon fill="#ffccde" fill-opacity="0.125490" points="165,67 199,74 147,29 140,108 123,28 "/>
<polygon fill="#2fd6f9" fill-opacity="0.000000" points="255,164 141,127 249,7 "/>
<polygon fill="#fafaff" fill-opacity="0.600000" points="68,148 163,72 228,20 250,117 231,118 "/>
<polygon fill="#f4d9e6" fill-opacity="0.188235" points="165,70 208,35 2,151 "/>
<polygon fill="#68ff2e" fill-opacity="0.000000" points="233,134 0,165 110,166 140,69 8,60 "/>
<polygon fill="#b93662" fill-opacity="0.000000" points="71,65 168,20 105,67 35,60 189,110 "/>
<polygon fill="#ffffff" fill-opacity="0.686275" points="117,105 107,165 208,145 236,130 "/>
<polygon fill="#ffffff" fill-opacity="0.262745" points="232,158 242,106 215,18 144,106 21,144 "/>
<polygon fill="#ffff29" fill-opacity="0.000000" points="157,60 128,160 128,115 25,55 190,69 "/>
<polygon fill="#6a6e24" fill-opacity="0.160784" points="3,13 7,0 54,44 "/>
<polygon fill="#3effff" fill-opacity="0.000000" points="114,52 53,60 48,79 146,125 "/>
<polygon fill="#5fe505" fill-opacity="0.000000" points="218,46 73,85 189,160 48,79 "/>
<polygon fill="#edffff" fill-opacity="0.305882" points="219,151 12,7 6,40 105,85 252,69 "/>
<polygon fill="#009345" fill-opacity="0.000000" points="115,152 121,70 82,26 104,20 "/>
<polygon fill="#86065a" fill-opacity="0.478431" points="241,130 70,55 161,80 79,68 "/>
<polygon fill="#b6c94a" fill-opacity="0.000000" points="38,133 178,1 13,163 8,115 10,130 "/>
<polygon fill="#343a00" fill-opacity="0.000000" points="192,77 49,50 35,19 70,105 "/>
<polygon fill="#000000" fill-opacity="0.101961" points="48,102 108,67 176,78 81,48 "/>
<polygon fill="#525018" fill-opacity="0.105882" points="185,120 134,76 28,136 "/>
<polygon fill="#ffff33" fill-opacity="0.000000" points="116,60 173,101 16,70 "/>
<polygon fill="#710000" fill-opacity="0.258824" points="146,104 40,147 142,65 "/>
<polygon fill="#ff0000" fill-opacity="0.172549" points="188,136 131,39 77,45 "/>
<polygon fill="#ff45ff" fill-opacity="0.000000" points="142,72 91,122 142,85 63,72 151,10 "/>
<polygon fill="#852114" fill-opacity="0.647059" points="71,60 97,39 111,148 "/>
<polygon fill="#da7c4c" fill-opacity="0.000000" points="20,169 12,150 193,46 23,77 198,38 "/>
<polygon fill="#f9ffff" fill-opacity="0.027451" points="138,83 108,12 131,158 3,44 115,115 "/>
<polygon fill="#ffffd4" fill-opacity="0.392157" points="154,11 218,94 143,45 "/>
<polygon fill="#201500" fill-opacity="0.117647" points="138,55 64,89 149,58 32,67 141,74 "/>
<polygon fill="#736cfb" fill-opacity="0.000000" points="180,112 113,97 41,49 186,78 "/>
<polygon fill="#a1e2fe" fill-opacity="0.137255" points="41,137 163,108 253,164 178,71 204,126 "/>
<polygon fill="#2119ff" fill-opacity="0.000000" points="139,74 166,57 45,55 55,82 "/>
<polygon fill="#c32774" fill-opacity="0.254902" points="122,35 144,119 112,72 77,111 129,53 "/>
<polygon fill="#ffffff" fill-opacity="0.415686" points="205,14 44,49 166,35 116,9 "/>
<polygon fill="#ffffff" fill-opacity="0.803922" points="144,2 176,4 180,151 28,144 249,80 "/>
<polygon fill="#001a3c" fill-opacity="0.129412" points="118,99 168,81 82,133 51,117 "/>
<polygon fill="#8ca272" fill-opacity="0.094118" points="190,121 77,107 180,110 132,119 "/>
<polygon fill="#ffffff" fill-opacity="0.952941" points="193,84 240,31 127,0 138,35 "/>
<polygon fill="#ecff2c" fill-opacity="0.000000" points="179,118 149,134 43,63 139,32 162,155 "/>
<polygon fill="#8e1709" fill-opacity="0.450980" points="171,130 65,72 108,39 "/>
<polygon fill="#deffff" fill-opacity="0.258824" points="140,101 73,153 147,167 212,165 211,111 "/>
<polygon fill="#ffffff" fill-opacity="0.474510" points="140,95 247,117 44,157 "/>
<polygon fill="#4f434a" fill-opacity="0.000000" points="113,43 45,158 151,168 27,167 "/>
<polygon fill="#47ff37" fill-opacity="0.000000" points="151,76 158,59 28,87 20,73 82,56 "/>
<polygon fill="#c5e1a2" fill-opacity="0.000000" points="230,138 218,86 200,136 175,124 212,156 "/>
<polygon fill="#ffffff" fill-opacity="0.247059" points="16,20 212,82 221,5 "/>
<polygon fill="#fbffff" fill-opacity="0.529412" points="173,86 219,79 235,96 163,134 6,154 "/>
<polygon fill="#ffffff" fill-opacity="0.149020" points="151,2 208,20 25,13 232,78 "/>
<polygon fill="#c04554" fill-opacity="0.439216" points="127,86 80,100 123,70 165,93 "/>
<polygon fill="#3c001b" fill-opacity="0.215686" points="78,129 143,90 194,91 130,103 "/>
<polygon fill="#ff00ff" fill-opacity="0.000000" points="95,42 51,93 191,105 "/>
<polygon fill="#412123" fill-opacity="0.000000" points="100,57 138,45 151,147 84,65 "/>
<polygon fill="#5c26ff" fill-opacity="0.000000" points="110,76 203,134 68,82 68,125 71,60 "/>
<polygon fill="#ffa9ff" fill-opacity="0.078431" points="202,169 248,120 91,42 127,81 177,121 "/>
<polygon fill="#ff1f2b" fill-opacity="0.000000" points="9,68 167,112 131,34 "/>
<polygon fill="#ffffff" fill-opacity="0.725490" points="183,12 237,129 126,155 "/>
<polygon fill="#000cad" fill-opacity="0.043137" points="87,108 114,78 67,41 "/>
<polygon fill="#ed5efe" fill-opacity="0.000000" points="49,121 125,166 5,125 6,137 21,44 "/>
<polygon fill="#ffffff" fill-opacity="0.505882" points="255,32 195,41 65,167 178,143 "/>
<polygon fill="#ff0022" fill-opacity="0.000000" points="26,48 98,83 190,68 "/>
<polygon fill="#f4181c" fill-opacity="0.000000" points="119,111 14,91 202,37 "/>
<polygon fill="#3c0519" fill-opacity="0.137255" points="36,131 182,65 89,116 19,152 "/>
<polygon fill="#376a4b" fill-opacity="0.090196" points="0,144 1,5 136,123 12,43 "/>
<polygon fill="#c64c56" fill-opacity="0.223529" points="143,56 159,44 49,143 156,75 "/>
<polygon fill="#ff3f40" fill-opacity="0.000000" points="199,48 73,137 88,23 240,98 193,71 "/>
<polygon fill="#b89950" fill-opacity="0.000000" points="168,59 102,23 129,119 "/>
</g>
</svg>