<svg xmlns="http://www.w3.org/2000/svg" version="1.1" width="512" height="338">
<rect x="0" y="0" width="512" height="338" fill="#ffffff" />
<g transform="scale(2.000000) translate(0.5 0.5)">
<polygon fill="#3fffb8" fill-opacity="0.000000" points="144,146 147,167 246,157 "/>
<polygon fill="#c2355a" fill-opacity="0.015686" points="80,80 80,109 10,152 128,113 "/>
<polygon fill="#a58ca2" fill-opacity="0.423529" points="217,110 23,133 191,62 62,13 78,50 "/>
<polygon fill="#713d52" fill-opacity="0.380392" points="120,128 150,39 4,11 "/>
<polygon fill="#48b44b" fill-opacity="0.176471" points="63,3 172,59 129,31 28,13 "/>
<polygon fill="#006f29" fill-opacity="0.384314" points="107,48 138,128 43,0 196,93 "/>
<polygon fill="#0700af" fill-opacity="0.639216" points="142,91 166,113 130,128 "/>
<polygon fill="#b516ff" fill-opacity="0.000000" points="238,131 233,137 186,129 43,59 "/>
<polygon fill="#004738" fill-opacity="0.145098" points="184,3 54,115 70,143 71,111 "/>
<polygon fill="#28b12c" fill-opacity="0.000000" points="5,133 182,121 153,96 88,25 118,98 "/>
<polygon fill="#ff88fd" fill-opacity="0.105882" points="179,119 102,84 183,137 111,60 "/>
<polygon fill="#3e002c" fill-opacity="0.211765" points="183,111 29,139 231,16 97,110 "/>
<polygon fill="#9cb900" fill-opacity="0.196078" points="119,137 17,0 201,56 "/>
<polygon fill="#6fbf0f" fill-opacity="0.133333" points="171,62 93,110 180,119 100,79 "/>
<polygon fill="#7d4fbb" fill-opacity="0.000000" points="116,138 213,44 107,149 "/>
<polygon fill="#d4001d" fill-opacity="0.588235" points="101,37 146,66 89,77 66,67 "/>
<polygon fill="#3fc46a" fill-opacity="0.000000" points="142,98 242,119 97,123 "/>
<polygon fill="#633746" fill-opacity="0.211765" points="134,104 50,83 165,51 113,113 "/>
<polygon fill="#2a14c6" fill-opacity="0.000000" points="133,164 155,161 245,150 250,112 213,106 "/>
<polygon fill="#00501b" fill-opacity="0.254902" points="254,167 249,153 226,128 133,35 54,69 "/>
<polygon fill="#478eb4" fill-opacity="0.356863" points="254,158 153,165 218,137 38,43 248,147 "/>
<polygon fill="#9e9cbf" fill-opacity="0.086275" points="49,98 73,64 82,3 "/>
<polygon fill="#ffe8b4" fill-opacity="0.058824" points="132,84 200,41 92,103 182,47 "/>
<polygon fill="#507824" fill-opacity="0.329412" points="145,162 59,1 152,63 250,163 "/>
<polygon fill="#14ff00" fill-opacity="0.286275" points="100,45 169,52 177,95 6,0 160,162 "/>
<polygon fill="#4e0060" fill-opacity="0.188235" points="83,73 64,88 175,168 187,49 "/>
<polygon fill="#ff744a" fill-opacity="0.000000" points="101,28 43,42 97,97 162,113 195,109 "/>
<polygon fill="#01e646" fill-opacity="0.125490" points="124,127 191,42 112,70 57,139 200,32 "/>
<polygon fill="#545142" fill-opacity="0.215686" points="166,104 23,143 134,70 163,126 154,63 "/>
<polygon fill="#61ff81" fill-opacity="0.000000" points="39,79 254,40 241,103 7,133 81,86 "/>
<polygon fill="#cec7e7" fill-opacity="0.223529" points="126,119 123,43 253,145 "/>
<polygon fill="#0f999d" fill-opacity="0.227451" points="140,66 94,78 50,73 150,126 "/>
<polygon fill="#ad919b" fill-opacity="0.835294" points="0,2 119,107 190,51 "/>
<polygon fill="#dff1ff" fill-opacity="0.341176" points="249,87 99,165 93,163 244,113 "/>
<polygon fill="#5e2860" fill-opacity="0.525490" points="236,168 217,117 157,137 "/>
<polygon fill="#13c5d5" fill-opacity="0.631373" points="18,35 95,67 53,69 134,42 "/>
<polygon fill="#ffffee" fill-opacity="0.913725" points="131,60 88,31 213,105 222,165 96,138 "/>
<polygon fill="#00546f" fill-opacity="0.156863" points="180,153 149,144 108,100 "/>
<polygon fill="#a51d02" fill-opacity="0.294118" points="69,129 235,78 89,124 "/>
<polygon fill="#40038b" fill-opacity="0.223529" points="134,142 240,164 164,132 "/>
<polygon fill="#66b556" fill-opacity="0.200000" points="109,131 45,70 94,134 "/>
<polygon fill="#ffffff" fill-opacity="0.411765" points="153,111 19,12 33,40 "/>
<polygon fill="#80574a" fill-opacity="0.156863" points="38,54 186,71 84,123 96,104 "/>
<polygon fill="#002f98" fill-opacity="0.423529" points="108,50 170,42 98,111 17,27 80,55 "/>
<polygon fill="#dcffff" fill-opacity="0.549020" points="243,134 156,100 59,137 "/>
<polygon fill="#6d8d9f" fill-opacity="0.180392" points="6,45 157,87 114,44 206,84 17,3 "/>
<polygon fill="#a3ef93" fill-opacity="0.384314" points="17,3 38,63 2,34 "/>
<polygon fill="#ffffff" fill-opacity="0.376471" points="108,16 128,147 209,69 "/>
<polygon fill="#3b873f" fill-opacity="0.149020" points="63,99 147,67 131,98 67,32 "/>
<polygon fill="#3400c2" fill-opacity="0.011765" points="24,0 157,128 28,136 154,29 "/>
<polygon fill="#eff763" fill-opacity="0.000000" points="79,98 142,98 14,12 "/>
<polygon fill="#d6baff" fill-opacity="0.356863" points="193,84 12,20 2,167 19,35 191,39 "/>
<polygon fill="#e8ffff" fill-opacity="0.537255" points="15,23 8,33 118,29 227,65 172,108 "/>
<polygon fill="#933d60" fill-opacity="0.247059" points="121,61 190,60 168,76 60,134 "/>
<polygon fill="#ffffe4" fill-opacity="0.403922" points="69,102 226,142 208,91 189,141 165,157 "/>
<polygon fill="#893800" fill-opacity="0.278431" points="180,72 55,8 64,101 100,56 "/>
<polygon fill="#119118" fill-opacity="0.447059" points="140,54 57,90 124,85 53,82 "/>
<polygon fill="#4de8e1" fill-opacity="0.235294" points="28,31 156,132 11,34 "/>
<polygon fill="#1dd2b4" fill-opacity="0.243137" points="19,42 240,166 180,105 94,0 "/>
<polygon fill="#84ca91" fill-opacity="0.000000" points="19,107 22,74 33,90 126,51 "/>
<polygon fill="#1932a7" fill-opacity="0.639216" points="131,108 66,100 129,93 "/>
<polygon fill="#d56b91" fill-opacity="0.000000" points="108,127 85,20 63,45 "/>
<polygon fill="#cdfcdb" fill-opacity="0.317647" points="112,0 80,23 7,47 116,75 "/>
<polygon fill="#458ed4" fill-opacity="0.427451" points="179,93 158,162 159,63 80,45 "/>
<polygon fill="#2d3318" fill-opacity="0.384314" points="161,56 213,74 61,93 "/>
<polygon fill="#002d9a" fill-opacity="0.094118" points="119,36 166,134 52,46 92,58 "/>
<polygon fill="#9f558c" fill-opacity="0.164706" points="136,98 75,32 59,4 "/>
<polygon fill="#52ab6d" fill-opacity="0.105882" points="63,132 42,140 47,145 153,18 "/>
<polygon fill="#ae704f" fill-opacity="0.360784" points="99,149 51,63 81,116 "/>
<polygon fill="#dacfcb" fill-opacity="0.474510" points="104,65 153,110 4,24 3,17 "/>
<polygon fill="#0b6274" fill-opacity="0.203922" points="224,41 161,41 0,84 4,1 "/>
<polygon fill="#ffffff" fill-opacity="0.843137" points="236,55 135,66 76,145 152,165 "/>
<polygon fill="#b26c00" fill-opacity="0.003922" points="214,68 184,90 17,139 "/>
<polygon fill="#005b2c" fill-opacity="0.321569" points="89,116 55,64 126,70 150,74 159,69 "/>
<polygon fill="#797ad5" fill-opacity="0.050980" points="23,167 187,73 52,140 13,125 "/>
<polygon fill="#8ffff8" fill-opacity="0.007843" points="156,135 149,149 136,163 110,152 "/>
<polygon fill="#1dc77e" fill-opacity="0.078431" points="84,139 184,151 195,168 "/>
<polygon fill="#69b98f" fill-opacity="0.576471" points="9,7 197,142 127,57 42,2 "/>
<polygon fill="#b6326e" fill-opacity="0.329412" points="177,110 152,43 89,83 "/>
<polygon fill="#a5c7dc" fill-opacity="0.584314" points="73,18 41,2 164,1 "/>
<polygon fill="#a2353a" fill-opacity="0.227451" points="152,28 63,111 178,93 85,106 "/>
<polygon fill="#84a5ab" fill-opacity="0.192157" points="176,97 102,39 203,108 192,103 56,15 "/>
<polygon fill="#82dd4a" fill-opacity="0.725490" points="163,83 111,85 122,113 "/>
<polygon fill="#74ffff" fill-opacity="0.094118" points="125,111 198,65 154,118 198,71 "/>
<polygon fill="#1a3f06" fill-opacity="0.000000" points="200,50 179,53 1,151 "/>
<polygon fill="#ffffba" fill-opacity="0.000000" points="40,50 100,92 230,161 "/>
<polygon fill="#2ea716" fill-opacity="0.733333" points="158,25 65,98 125,36 115,54 "/>
<polygon fill="#2d4341" fill-opacity="0.105882" points="158,57 125,88 30,99 "/>
<polygon fill="#388ee6" fill-opacity="0.270588" points="190,78 163,67 15,43 53,12 "/>
<polygon fill="#aed843" fill-opacity="0.215686" points="227,132 73,0 35,4 42,6 192,98 "/>
<polygon fill="#446bc4" fill-opacity="0.184314" points="142,136 10,2 253,156 "/>
<polygon fill="#716b8b" fill-opacity="0.294118" points="181,60 88,62 94,109 107,40 "/>
<polygon fill="#006e56" fill-opacity="0.015686" points="148,29 86,16 70,26 47,4 "/>
<polygon fill="#ff9cff" fill-opacity="0.556863" points="73,98 92,24 16,49 229,71 "/>
<polygon fill="#fff0ff" fill-opacity="0.721569" points="199,63 115,16 45,61 "/>
<polygon fill="#ffffff" fill-opacity="0.294118" points="177,128 28,47 106,1 233,87 "/>
<polygon fill="#ffffff" fill-opacity="0.603922" points="69,11 163,76 156,166 192,39 "/>
<polygon fill="#fdffff" fill-opacity="0.792157" points="222,67 22,131 6,115 111,94 "/>
<polygon fill="#f5ffff" fill-opacity="0.356863" points="158,39 24,67 65,3 206,71 138,162 "/>
<polygon fill="#bdefec" fill-opacity="0.341176" points="127,95 159,94 146,117 "/>
<polygon fill="#2f2600" fill-opacity="0.733333" points="117,62 68,50 102,122 "/>
<polygon fill="#1e1e38" fill-opacity="0.317647" points="61,29 47,69 78,108 59,70 "/>
<polygon fill="#5acbb6" fill-opacity="0.145098" points="88,38 158,118 72,17 "/>
<polygon fill="#f6f1ff" fill-opacity="0.800000" points="241,168 139,69 118,164 "/>
<polygon fill="#8381de" fill-opacity="0.000000" points="177,91 66,122 134,58 43,16 "/>
<polygon fill="#6ea888" fill-opacity="0.231373" points="171,90 177,162 231,166 "/>
<polygon fill="#42ffbc" fill-opacity="0.007843" points="71,69 69,31 114,136 41,54 "/>
<polygon fill="#e635bf" fill-opacity="0.101961" points="186,64 71,36 168,119 124,63 "/>
<polygon fill="#ffffac" fill-opacity="0.309804" points="79,20 160,118 199,85 93,27 "/>
<polygon fill="#5a0077" fill-opacity="0.278431" points="142,103 97,101 113,14 121,114 126,87 "/>
<polygon fill="#23e095" fill-opacity="0.000000" points="200,59 175,87 195,64 "/>
<polygon fill="#ad6832" fill-opacity="1.000000" points="200,109 178,72 116,55 "/>
<polygon fill="#ffffff" fill-opacity="0.776471" points="210,144 128,14 235,61 91,155 "/>
<polygon fill="#043d03" fill-opacity="0.584314" points="79,95 130,80 108,127 "/>
<polygon fill="#ff2958" fill-opacity="0.000000" points="161,18 98,89 42,57 165,82 169,141 "/>
<polygon fill="#92ab9b" fill-opacity="0.282353" points="235,137 248,122 255,144 191,158 172,107 "/>
<polygon fill="#ab5728" fill-opacity="0.125490" points="76,50 254,153 137,41 183,42 "/>
<polygon fill="#a30018" fill-opacity="0.486275" points="73,88 65,69 177,35 145,116 "/>
<polygon fill="#00b53c" fill-opacity="0.117647" points="115,77 121,125 214,96 47,132 43,135 "/>
<polygon fill="#385842" fill-opacity="0.192157" points="85,96 174,76 67,126 147,39 107,109 "/>
<polygon fill="#ffffff" fill-opacity="0.498039" points="185,49 102,136 215,125 150,58 "/>
<polygon fill="#ffffff" fill-opacity="0.388235" points="45,0 21,63 157,21 181,25 230,135 "/>
<polygon fill="#ff00a1" fill-opacity="0.345098" points="64,19 137,84 196,80 "/>
<polygon fill="#ef0aa0" fill-opacity="0.054902" points="148,105 102,24 78,132 "/>
<polygon fill="#88ffff" fill-opacity="0.149020" points="134,28 34,69 100,32 212,38 "/>
<polygon fill="#b7db00" fill-opacity="0.568627" points="167,68 70,57 125,32 "/>
<polygon fill="#ffffff" fill-opacity="0.294118" points="162,158 248,57 194,123 224,42 152,27 "/>
<polygon fill="#ffa9d3" fill-opacity="0.490196" points="113,52 112,64 105,145 "/>
<polygon fill="#4e1000" fill-opacity="0.619608" points="60,123 91,102 155,51 135,111 "/>
<polygon fill="#f1ebc6" fill-opacity="0.000000" points="197,124 169,139 198,118 206,95 182,88 "/>
<polygon fill="#818eb5" fill-opacity="0.000000" points="98,46 176,74 90,49 138,26 "/>
<polygon fill="#bde034" fill-opacity="0.000000" points="202,3 186,131 102,63 187,123 "/>
<polygon fill="#5000c4" fill-opacity="0.078431" points="39,132 1,132 21,160 183,72 "/>
<polygon fill="#2bfffe" fill-opacity="0.000000" points="76,83 62,114 159,135 45,107 "/>
<polygon fill="#551383" fill-opacity="0.192157" points="62,117 160,75 6,158 "/>
<polygon fill="#ff1dff" fill-opacity="0.149020" points="75,12 182,69 108,61 189,124 "/>
<polygon fill="#ffcecd" fill-opacity="0.321569" points="4,25 78,49 111,95 82,57 "/>
<polygon fill="#37410f" fill-opacity="0.000000" points="94,88 7,67 177,77 25,139 179,64 "/>
<polygon fill="#def163" fill-opacity="0.000000" points="143,66 82,48 222,100 130,55 173,70 "/>
<polygon fill="#6b0000" fill-opacity="0.419608" points="74,61 168,34 149,104 "/>
<polygon fill="#d70000" fill-opacity="0.098039" points="238,68 46,17 112,117 160,35 98,10 "/>
<polygon fill="#a6b83e" fill-opacity="0.082353" points="68,56 111,26 252,162 253,143 "/>
<polygon fill="#b5ffa0" fill-opacity="0.098039" points="8,33 144,3 84,0 86,3 128,18 "/>
<polygon fill="#2d5cff" fill-opacity="0.000000" points="135,136 87,106 71,48 "/>
<polygon fill="#ffffff" fill-opacity="0.470588" points="74,44 4,103 18,8 241,45 "/>
<polygon fill="#6b4a00" fill-opacity="0.003922" points="162,100 71,82 140,106 149,14 "/>
<polygon fill="#00753a" fill-opacity="0.243137" points="93,101 75,90 29,21 "/>
<polygon fill="#ab83ff" fill-opacity="0.000000" points="249,67 157,2 255,5 "/>
<polygon fill="#e6ea07" fill-opacity="0.000000" points="112,51 116,158 128,41 "/>
<polygon fill="#ffa201" fill-opacity="0.011765" points="33,75 176,69 121,34 210,118 158,100 "/>
<polygon fill="#ffc9f4" fill-opacity="0.027451" points="217,72 137,150 233,113 142,148 "/>
<polygon fill="#98bce7" fill-opacity="0.192157" points="245,162 194,144 250,105 "/>
<polygon fill="#009605" fill-opacity="0.047059" points="130,109 239,0 150,89 179,76 55,127 "/>
<polygon fill="#63a8dd" fill-opacity="0.043137" points="90,22 134,14 0,29 18,38 "/>
<polygon fill="#a6ffc0" fill-opacity="0.078431" points="32,16 87,81 84,80 111,147 109,153 "/>
<polygon fill="#0c97ff" fill-opacity="0.000000" points="83,165 255,119 128,155 199,129 140,155 "/>
<polygon fill="#ff7e00" fill-opacity="0.000000" points="74,60 67,131 134,146 96,155 127,6 "/>
<polygon fill="#ffffff" fill-opacity="0.764706" points="214,0 99,158 156,116 230,106 188,151 "/>
<polygon fill="#ffffff" fill-opacity="0.631373" points="53,9 252,33 32,85 "/>
<polygon fill="#fda757" fill-opacity="0.000000" points="94,78 25,64 197,58 "/>
<polygon fill="#1cff77" fill-opacity="0.207843" points="189,131 205,159 199,135 47,60 "/>
<polygon fill="#b10000" fill-opacity="0.301961" points="81,123 140,40 102,43 "/>
<polygon fill="#ff2078" fill-opacity="0.168627" points="175,106 72,23 137,78 51,52 "/>
<polygon fill="#67710d" fill-opacity="0.243137" points="21,133 38,139 158,100 "/>
<polygon fill="#2a8bb3" fill-opacity="0.239216" points="210,118 221,118 18,52 83,77 "/>
<polygon fill="#ffffff" fill-opacity="0.223529" points="212,58 237,105 112,133 237,24 82,38 "/>
<polygon fill="#ffa49f" fill-opacity="0.294118" points="191,60 15,133 106,104 62,23 "/>
<polygon fill="#653f5e" fill-opacity="0.000000" points="12,144 48,145 133,94 13,4 6,92 "/>
<polygon fill="#a6007a" fill-opacity="0.329412" points="115,62 54,70 201,58 "/>
<polygon fill="#ffff4e" fill-opacity="0.000000" points="173,76 209,5 52,58 49,85 "/>
<polygon fill="#652e28" fill-opacity="0.435294" points="77,81 92,47 160,121 51,49 "/>
<polygon fill="#ff0000" fill-opacity="0.160784" points="75,42 124,99 136,28 33,68 163,60 "/>
<polygon fill="#6d53ab" fill-opacity="0.101961" points="177,10 7,27 67,33 69,33 8,3 "/>
<polygon fill="#50ff35" fill-opacity="0.000000" points="122,168 25,157 96,17 "/>
<polygon fill="#ffffff" fill-opacity="0.360784" points="242,27 199,161 153,94 149,106 133,19 "/>
<polygon fill="#a64225" fill-opacity="0.415686" points="152,38 66,75 117,132 "/>
<polygon fill="#920000" fill-opacity="0.168627" points="62,166 66,78 228,66 74,46 "/>
<polygon fill="#6200c3" fill-opacity="0.000000" points="118,96 68,55 205,53 45,135 157,97 "/>
<polygon fill="#a0286f" fill-opacity="0.000000" points="89,27 52,157 13,135 42,134 131,58 "/>
<polygon fill="#2400be" fill-opacity="0.000000" points="132,42 41,80 80,75 65,94 "/>
<polygon fill="#204e00" fill-opacity="0.470588" points="97,58 69,81 83,61 "/>
<polygon fill="#cc4f1e" fill-opacity="0.000000" points="177,76 27,50 102,51 "/>
<polygon fill="#feff4f" fill-opacity="0.000000" points="208,24 119,106 123,36 171,80 "/>
<polygon fill="#d0855f" fill-opacity="0.294118" points="125,96 141,51 157,26 71,162 "/>
<polygon fill="#fffffd" fill-opacity="0.643137" points="247,84 186,77 47,142 82,163 "/>
<polygon fill="#680521" fill-opacity="0.000000" points="31,95 137,20 117,47 61,119 235,97 "/>
<polygon fill="#ffffb4" fill-opacity="0.090196" points="244,85 169,153 203,52 103,14 200,115 "/>
<polygon fill="#ffe2f7" fill-opacity="0.474510" points="230,137 230,11 61,152 98,138 "/>
<polygon fill="#ff2cef" fill-opacity="0.000000" points="225,5 149,19 89,152 56,29 7,86 "/>
<polygon fill="#513aff" fill-opacity="0.000000" points="117,109 43,136 193,44 82,141 236,13 "/>
<polygon fill="#62ff42" fill-opacity="0.000000" points="3,138 227,53 158,82 194,65 87,132 "/>
<polygon fill="#620000" fill-opacity="0.078431" points="68,57 210,102 236,157 202,86 98,46 "/>
<polygon fill="#47002a" fill-opacity="0.054902" points="30,62 211,159 138,129 142,75 111,48 "/>
<polygon fill="#22e158" fill-opacity="0.000000" points="47,117 127,164 32,167 48,97 "/>
<polygon fill="#ff012f" fill-opacity="0.254902" points="141,52 202,91 43,39 "/>
<polygon fill="#ffffff" fill-opacity="0.658824" points="160,150 169,30 108,19 171,10 249,163 "/>
<polygon fill="#d2bceb" fill-opacity="0.000000" points="132,81 93,132 133,70 88,94 18,109 "/>
<polygon fill="#00ffff" fill-opacity="0.000000" points="87,33 68,144 189,65 57,130 "/>
<polygon fill="#68006f" fill-opacity="0.000000" points="102,135 113,31 48,111 68,94 "/>
<polygon fill="#7a1400" fill-opacity="0.070588" points="22,40 122,124 86,105 194,99 23,40 "/>
</g>
</svg>