<svg xmlns="http://www.w3.org/2000/svg" version="1.1" width="512" height="338">
<rect x="0" y="0" width="512" height="338" fill="#ffffff" />
<g transform="scale(2.000000) translate(0.5 0.5)">
<polygon fill="#00d4e6" fill-opacity="0.419608" points="51,59 245,121 235,141 "/>
<polygon fill="#a062c1" fill-opacity="0.129412" points="31,146 192,36 5,153 "/>
<polygon fill="#68637b" fill-opacity="0.152941" points="177,75 181,58 2,162 53,120 "/>
<polygon fill="#001c00" fill-opacity="1.000000" points="229,118 65,15 66,95 121,61 131,160 "/>
<polygon fill="#d9ffd1" fill-opacity="1.000000" points="138,144 24,39 211,160 31,47 "/>
<polygon fill="#1f5642" fill-opacity="0.341176" points="1,3 178,90 220,80 255,153 "/>
<polygon fill="#139677" fill-opacity="0.211765" points="0,106 3,41 7,52 137,13 0,36 "/>
<polygon fill="#007445" fill-opacity="0.564706" points="49,85 230,70 106,59 "/>
<polygon fill="#3d0021" fill-opacity="0.776471" points="17,51 34,0 3,3 "/>
<polygon fill="#340088" fill-opacity="0.952941" points="103,20 251,132 152,48 "/>
<polygon fill="#013d8e" fill-opacity="0.607843" points="97,88 135,163 202,16 "/>
<polygon fill="#0c3400" fill-opacity="1.000000" points="58,76 141,14 49,63 "/>
<polygon fill="#53432c" fill-opacity="0.466667" points="35,19 85,103 104,106 26,34 90,31 "/>
<polygon fill="#5b7ca7" fill-opacity="0.207843" points="254,161 106,100 17,144 252,103 "/>
<polygon fill="#000200" fill-opacity="0.992157" points="195,97 241,118 32,58 175,132 "/>
<polygon fill="#0a2be7" fill-opacity="0.054902" points="178,143 253,66 255,147 83,16 185,9 "/>
<polygon fill="#006326" fill-opacity="0.545098" points="174,71 198,32 68,102 153,88 "/>
<polygon fill="#365365" fill-opacity="0.203922" points="36,0 229,46 162,117 0,34 0,27 "/>
<polygon fill="#b9da8a" fill-opacity="0.694118" points="65,78 224,110 208,154 "/>
<polygon fill="#647667" fill-opacity="0.682353" points="0,33 31,27 127,8 0,0 "/>
<polygon fill="#0b0800" fill-opacity="0.721569" points="40,57 82,49 58,83 96,76 151,95 "/>
<polygon fill="#000000" fill-opacity="0.858824" points="70,82 144,128 124,143 "/>
<polygon fill="#64825c" fill-opacity="0.125490" points="177,17 159,27 44,111 173,33 "/>
<polygon fill="#86745d" fill-opacity="0.231373" points="102,116 17,148 24,133 148,92 "/>
<polygon fill="#bea088" fill-opacity="0.388235" points="79,109 125,97 175,127 63,118 "/>
<polygon fill="#98a7a1" fill-opacity="1.000000" points="35,35 185,165 0,18 4,8 "/>
<polygon fill="#000000" fill-opacity="0.376471" points="67,66 117,133 117,128 "/>
<polygon fill="#f700a9" fill-opacity="0.011765" points="127,107 112,89 126,33 134,149 "/>
<polygon fill="#35edff" fill-opacity="0.011765" points="81,60 246,0 254,42 78,9 86,77 "/>
<polygon fill="#590500" fill-opacity="0.247059" points="76,90 149,36 52,83 238,96 96,65 "/>
<polygon fill="#acc1ab" fill-opacity="1.000000" points="60,63 75,37 1,16 3,38 198,66 "/>
<polygon fill="#001800" fill-opacity="0.011765" points="191,21 111,107 30,41 99,32 "/>
<polygon fill="#ffffff" fill-opacity="1.000000" points="143,70 32,77 204,14 62,85 "/>
<polygon fill="#000057" fill-opacity="1.000000" points="185,130 132,106 236,148 187,153 110,150 "/>
<polygon fill="#35c53d" fill-opacity="0.137255" points="194,8 0,38 139,103 58,117 80,129 "/>
<polygon fill="#e66099" fill-opacity="0.168627" points="228,129 101,132 211,20 71,104 171,33 "/>
<polygon fill="#250f41" fill-opacity="0.000000" points="255,5 248,71 157,2 "/>
<polygon fill="#99b59b" fill-opacity="0.603922" points="109,116 15,14 20,0 84,0 "/>
<polygon fill="#6f766b" fill-opacity="0.450980" points="182,36 57,29 86,80 71,32 62,93 "/>
<polygon fill="#9e8228" fill-opacity="0.000000" points="210,85 238,2 51,47 129,24 255,2 "/>
<polygon fill="#5e6bff" fill-opacity="0.015686" points="69,167 215,134 226,142 76,29 149,168 "/>
<polygon fill="#56d36b" fill-opacity="0.219608" points="234,41 74,32 63,98 "/>
<polygon fill="#6a5e73" fill-opacity="0.223529" points="233,82 67,99 204,105 190,62 "/>
<polygon fill="#cffedc" fill-opacity="0.725490" points="140,14 83,1 16,7 104,112 "/>
<polygon fill="#ffffff" fill-opacity="0.945098" points="88,67 15,53 9,20 141,3 243,19 "/>
<polygon fill="#f0eafc" fill-opacity="0.517647" points="95,0 231,59 171,30 17,4 "/>
<polygon fill="#830f00" fill-opacity="0.670588" points="135,15 171,136 69,66 "/>
<polygon fill="#005eaf" fill-opacity="0.435294" points="108,77 182,141 175,74 19,34 226,3 "/>
<polygon fill="#007449" fill-opacity="0.725490" points="125,158 83,18 91,116 117,110 "/>
<polygon fill="#f3f2ff" fill-opacity="0.250980" points="106,103 189,166 0,159 33,67 40,153 "/>
<polygon fill="#108483" fill-opacity="0.325490" points="16,10 255,168 239,109 48,126 145,104 "/>
<polygon fill="#82c387" fill-opacity="0.258824" points="221,41 94,104 84,59 8,57 6,32 "/>
<polygon fill="#b5dbae" fill-opacity="0.000000" points="229,18 182,68 131,133 "/>
<polygon fill="#680024" fill-opacity="1.000000" points="119,97 108,96 254,132 110,13 "/>
<polygon fill="#bdffaf" fill-opacity="0.372549" points="53,137 188,51 101,71 81,147 83,114 "/>
<polygon fill="#720e9d" fill-opacity="0.003922" points="254,57 32,67 160,75 20,33 249,9 "/>
<polygon fill="#ffffff" fill-opacity="0.705882" points="114,111 66,56 0,17 86,85 211,40 "/>
<polygon fill="#6fdec2" fill-opacity="0.450980" points="143,102 14,0 1,50 9,54 189,11 "/>
<polygon fill="#ff845c" fill-opacity="0.603922" points="154,39 145,124 74,81 149,151 "/>
<polygon fill="#00a200" fill-opacity="0.105882" points="65,115 215,64 40,24 251,127 51,126 "/>
<polygon fill="#240000" fill-opacity="0.274510" points="84,80 85,62 107,125 73,66 68,12 "/>
<polygon fill="#004d00" fill-opacity="0.086275" points="95,50 152,8 54,81 190,75 "/>
<polygon fill="#007324" fill-opacity="1.000000" points="144,95 100,45 70,75 81,81 184,88 "/>
<polygon fill="#0700ff" fill-opacity="0.858824" points="222,147 129,153 169,90 205,99 "/>
<polygon fill="#ffffff" fill-opacity="1.000000" points="71,13 222,6 227,54 10,62 "/>
<polygon fill="#e9f9fb" fill-opacity="0.725490" points="89,48 59,43 6,12 132,6 "/>
<polygon fill="#204b1a" fill-opacity="0.545098" points="109,72 77,102 77,97 "/>
<polygon fill="#ffffff" fill-opacity="1.000000" points="41,26 60,113 37,66 "/>
<polygon fill="#680000" fill-opacity="1.000000" points="116,149 130,166 94,17 73,61 "/>
<polygon fill="#004e4d" fill-opacity="0.725490" points="114,139 243,151 240,153 240,140 "/>
<polygon fill="#1c5358" fill-opacity="0.270588" points="238,169 152,167 253,168 "/>
<polygon fill="#007900" fill-opacity="0.000000" points="35,129 243,126 213,134 42,125 "/>
<polygon fill="#97af52" fill-opacity="0.145098" points="203,119 134,46 149,94 61,53 "/>
<polygon fill="#284e00" fill-opacity="0.768627" points="69,67 215,95 63,88 84,76 57,68 "/>
<polygon fill="#4d9e41" fill-opacity="0.270588" points="37,137 131,107 227,157 107,100 "/>
<polygon fill="#583d76" fill-opacity="0.168627" points="171,152 240,153 90,29 169,81 54,118 "/>
<polygon fill="#42c6bc" fill-opacity="0.145098" points="140,1 93,14 13,5 0,3 "/>
<polygon fill="#005d00" fill-opacity="0.172549" points="195,92 180,133 222,156 37,60 "/>
<polygon fill="#32787f" fill-opacity="0.227451" points="132,169 177,169 219,89 "/>
<polygon fill="#01b30f" fill-opacity="0.000000" points="199,76 69,88 172,131 20,80 20,93 "/>
<polygon fill="#f80000" fill-opacity="0.741176" points="134,153 168,51 82,35 82,74 "/>
<polygon fill="#9d5731" fill-opacity="0.152941" points="72,109 124,119 44,134 "/>
<polygon fill="#ff451e" fill-opacity="0.521569" points="130,103 79,82 74,72 150,85 207,87 "/>
<polygon fill="#d6d6c8" fill-opacity="0.337255" points="23,76 45,1 0,1 33,78 162,55 "/>
<polygon fill="#ff3300" fill-opacity="0.223529" points="237,89 160,88 66,64 137,132 75,28 "/>
<polygon fill="#2a2020" fill-opacity="0.101961" points="22,135 187,91 163,42 158,154 196,123 "/>
<polygon fill="#8bc294" fill-opacity="0.211765" points="20,127 193,126 182,168 57,117 252,125 "/>
<polygon fill="#507657" fill-opacity="0.164706" points="29,67 16,20 197,34 13,0 0,4 "/>
<polygon fill="#419261" fill-opacity="0.054902" points="109,72 254,148 250,49 253,129 "/>
<polygon fill="#673128" fill-opacity="0.415686" points="108,126 181,65 67,117 221,117 252,132 "/>
<polygon fill="#46a8c2" fill-opacity="0.576471" points="154,155 199,118 89,54 173,66 "/>
<polygon fill="#000017" fill-opacity="0.121569" points="67,100 196,76 186,35 255,139 "/>
<polygon fill="#71e0a4" fill-opacity="0.000000" points="169,157 146,159 193,167 47,109 "/>
<polygon fill="#a53404" fill-opacity="0.000000" points="250,10 50,115 200,18 255,156 240,137 "/>
<polygon fill="#e3e4ff" fill-opacity="0.572549" points="165,163 203,133 84,157 "/>
<polygon fill="#3c6266" fill-opacity="0.219608" points="253,168 183,166 181,150 202,88 173,37 "/>
<polygon fill="#677975" fill-opacity="0.145098" points="191,36 177,168 85,50 194,49 144,116 "/>
<polygon fill="#46a98f" fill-opacity="0.137255" points="168,52 44,6 62,72 19,0 "/>
<polygon fill="#000044" fill-opacity="0.050980" points="48,118 112,82 148,69 193,17 "/>
<polygon fill="#cae0e0" fill-opacity="0.643137" points="76,158 254,169 112,166 241,132 "/>
<polygon fill="#d3ffff" fill-opacity="0.105882" points="43,20 35,0 210,44 "/>
<polygon fill="#da0000" fill-opacity="0.223529" points="226,136 181,93 97,125 71,45 182,34 "/>
<polygon fill="#024634" fill-opacity="0.145098" points="180,68 32,130 254,144 141,24 "/>
<polygon fill="#ffffff" fill-opacity="1.000000" points="250,123 70,156 172,53 "/>
<polygon fill="#ffffff" fill-opacity="0.545098" points="83,102 234,124 102,146 "/>
<polygon fill="#cb9cb8" fill-opacity="0.396078" points="85,34 219,127 185,70 136,116 177,86 "/>
<polygon fill="#ffffff" fill-opacity="0.572549" points="158,77 230,20 232,59 254,105 20,163 "/>
<polygon fill="#ffffff" fill-opacity="1.000000" points="252,120 176,19 127,40 "/>
<polygon fill="#9cceb8" fill-opacity="0.282353" points="0,15 241,131 112,40 168,146 31,7 "/>
<polygon fill="#ffffff" fill-opacity="1.000000" points="62,52 88,17 245,0 "/>
<polygon fill="#a6c6c6" fill-opacity="1.000000" points="252,123 255,158 128,39 "/>
<polygon fill="#ffffff" fill-opacity="0.258824" points="27,18 179,168 231,0 "/>
<polygon fill="#ff5320" fill-opacity="0.615686" points="138,107 134,42 230,90 194,81 "/>
<polygon fill="#ffffff" fill-opacity="0.333333" points="140,163 120,146 135,2 220,23 191,154 "/>
<polygon fill="#a6d6bc" fill-opacity="0.701961" points="244,116 254,169 231,168 "/>
<polygon fill="#6c6043" fill-opacity="0.529412" points="45,130 174,66 189,84 "/>
<polygon fill="#1f558c" fill-opacity="0.082353" points="4,168 3,143 51,126 103,98 "/>
<polygon fill="#595f00" fill-opacity="0.000000" points="0,135 40,85 221,66 109,63 68,71 "/>
<polygon fill="#1a1800" fill-opacity="0.090196" points="122,118 15,142 206,49 "/>
<polygon fill="#feffff" fill-opacity="0.905882" points="146,169 249,79 207,61 143,94 22,161 "/>
<polygon fill="#5011f9" fill-opacity="0.027451" points="30,81 17,8 35,41 "/>
<polygon fill="#a00000" fill-opacity="0.478431" points="76,51 85,96 148,107 102,45 "/>
<polygon fill="#f6faff" fill-opacity="0.619608" points="247,5 252,134 218,114 145,169 120,93 "/>
<polygon fill="#473d3f" fill-opacity="0.278431" points="62,130 122,75 143,107 "/>
<polygon fill="#f7122c" fill-opacity="0.533333" points="97,42 110,44 158,79 189,74 "/>
<polygon fill="#ff6848" fill-opacity="0.000000" points="254,34 67,117 51,135 "/>
<polygon fill="#2f5700" fill-opacity="0.047059" points="213,45 187,111 36,131 "/>
<polygon fill="#ff1f29" fill-opacity="0.258824" points="198,155 117,47 204,69 110,87 180,120 "/>
<polygon fill="#2d87f0" fill-opacity="0.074510" points="179,163 240,136 212,124 134,133 "/>
<polygon fill="#9ec5aa" fill-opacity="0.121569" points="121,0 35,0 138,104 78,48 40,26 "/>
<polygon fill="#ff101e" fill-opacity="0.117647" points="81,47 171,84 227,161 137,40 "/>
<polygon fill="#00d416" fill-opacity="0.000000" points="125,134 139,82 184,40 65,109 113,62 "/>
<polygon fill="#004800" fill-opacity="0.074510" points="40,53 78,115 110,143 "/>
<polygon fill="#c3ced9" fill-opacity="0.423529" points="33,20 8,68 1,25 76,21 30,50 "/>
<polygon fill="#a2bcbf" fill-opacity="0.286275" points="160,0 0,0 0,46 "/>
<polygon fill="#d02a36" fill-opacity="0.000000" points="58,129 148,104 146,10 144,32 99,96 "/>
<polygon fill="#000000" fill-opacity="0.086275" points="102,60 73,54 87,121 125,105 147,87 "/>
<polygon fill="#db000f" fill-opacity="0.505882" points="107,43 105,97 218,102 "/>
<polygon fill="#ffff0d" fill-opacity="0.000000" points="89,40 47,96 168,118 187,69 "/>
<polygon fill="#545a41" fill-opacity="0.176471" points="96,84 133,99 25,37 141,123 "/>
<polygon fill="#b3c3e7" fill-opacity="0.149020" points="3,14 2,164 141,162 5,169 "/>
<polygon fill="#faffff" fill-opacity="0.349020" points="21,167 234,161 106,129 181,52 225,110 "/>
<polygon fill="#ff0000" fill-opacity="0.235294" points="115,38 88,43 186,150 "/>
<polygon fill="#870a13" fill-opacity="0.407843" points="100,112 84,49 152,75 63,71 "/>
<polygon fill="#140000" fill-opacity="0.105882" points="74,76 43,96 77,61 "/>
<polygon fill="#c90003" fill-opacity="0.090196" points="101,127 85,25 135,109 51,125 "/>
<polygon fill="#230000" fill-opacity="0.078431" points="188,63 211,58 31,149 142,74 142,134 "/>
<polygon fill="#f7ffff" fill-opacity="0.274510" points="18,36 114,8 33,106 "/>
<polygon fill="#6496cc" fill-opacity="0.090196" points="0,123 30,81 1,16 "/>
<polygon fill="#000e28" fill-opacity="0.000000" points="167,139 43,32 105,4 29,84 98,37 "/>
<polygon fill="#1ec257" fill-opacity="0.007843" points="199,45 159,169 234,150 32,41 145,156 "/>
<polygon fill="#440000" fill-opacity="0.137255" points="175,85 29,64 191,69 158,68 127,99 "/>
<polygon fill="#6b2e22" fill-opacity="0.145098" points="75,114 107,112 134,97 48,122 153,113 "/>
<polygon fill="#fefeff" fill-opacity="0.152941" points="29,53 239,155 147,71 36,75 "/>
<polygon fill="#ffffff" fill-opacity="0.082353" points="98,67 17,20 90,24 60,147 96,123 "/>
<polygon fill="#6cff39" fill-opacity="0.000000" points="205,95 96,78 87,48 45,164 79,37 "/>
<polygon fill="#8bdcdd" fill-opacity="0.054902" points="138,16 34,18 68,70 8,35 "/>
<polygon fill="#3f6231" fill-opacity="0.141176" points="153,116 111,106 206,168 24,35 "/>
<polygon fill="#070000" fill-opacity="0.125490" points="211,64 105,115 199,148 216,112 50,124 "/>
<polygon fill="#13b204" fill-opacity="0.000000" points="205,142 147,136 240,132 "/>
<polygon fill="#880000" fill-opacity="0.094118" points="121,72 207,92 126,103 58,94 79,74 "/>
<polygon fill="#feffff" fill-opacity="0.768627" points="240,149 111,157 111,118 209,32 "/>
<polygon fill="#674f00" fill-opacity="0.133333" points="200,144 20,32 136,114 206,122 "/>
<polygon fill="#1f0000" fill-opacity="0.188235" points="109,103 56,97 121,35 65,103 236,76 "/>
<polygon fill="#fd2e24" fill-opacity="0.000000" points="100,40 160,109 122,29 191,79 0,67 "/>
<polygon fill="#840000" fill-opacity="0.098039" points="134,78 131,71 80,121 156,96 "/>
<polygon fill="#5c0000" fill-opacity="0.396078" points="79,52 72,83 148,106 "/>
<polygon fill="#821f24" fill-opacity="0.000000" points="99,39 41,132 56,101 190,108 162,98 "/>
<polygon fill="#4d5d0a" fill-opacity="0.000000" points="49,82 73,54 47,23 "/>
<polygon fill="#78ff23" fill-opacity="0.000000" points="168,65 115,31 48,60 77,86 "/>
<polygon fill="#ffffff" fill-opacity="0.741176" points="213,59 66,137 247,159 "/>
<polygon fill="#b5157a" fill-opacity="0.078431" points="198,69 68,51 116,115 46,121 41,150 "/>
<polygon fill="#006100" fill-opacity="0.074510" points="24,67 168,61 94,66 238,75 "/>
<polygon fill="#6b1314" fill-opacity="0.184314" points="118,64 69,60 105,110 23,144 169,55 "/>
<polygon fill="#c5e3a4" fill-opacity="0.074510" points="81,99 188,30 42,138 105,98 "/>
<polygon fill="#aa334c" fill-opacity="0.000000" points="42,5 88,16 139,14 "/>
<polygon fill="#f3e2ff" fill-opacity="0.160784" points="0,147 29,169 56,90 "/>
<polygon fill="#f27366" fill-opacity="0.145098" points="134,89 79,116 126,67 "/>
<polygon fill="#ffffff" fill-opacity="0.164706" points="26,36 135,2 210,0 253,153 133,60 "/>
<polygon fill="#330000" fill-opacity="0.203922" points="144,97 67,137 106,115 133,73 "/>
<polygon fill="#19f4ff" fill-opacity="0.000000" points="100,107 128,38 19,157 229,61 "/>
<polygon fill="#ef0600" fill-opacity="0.023529" points="44,59 91,100 184,93 194,104 "/>
<polygon fill="#2826ff" fill-opacity="0.000000" points="59,80 225,58 93,52 66,103 "/>
<polygon fill="#5eeefe" fill-opacity="0.000000" points="0,164 3,88 254,162 "/>
<polygon fill="#006247" fill-opacity="0.105882" points="223,88 215,152 196,147 247,161 "/>
<polygon fill="#ffffff" fill-opacity="0.811765" points="125,165 26,161 253,132 179,23 "/>
<polygon fill="#c849b2" fill-opacity="0.000000" points="151,155 134,147 203,140 234,141 "/>
<polygon fill="#9b2c00" fill-opacity="0.098039" points="82,42 185,75 24,50 149,84 137,101 "/>
<polygon fill="#ff1ffc" fill-opacity="0.000000" points="87,90 168,102 157,44 70,61 "/>
<polygon fill="#dd6563" fill-opacity="0.176471" points="85,52 153,49 138,87 "/>
<polygon fill="#000000" fill-opacity="0.043137" points="42,57 140,51 83,124 148,94 108,91 "/>
<polygon fill="#fffbff" fill-opacity="0.090196" points="43,81 237,80 44,96 "/>
<polygon fill="#c50c42" fill-opacity="0.113725" points="86,86 163,43 126,110 "/>
<polygon fill="#00aa75" fill-opacity="0.101961" points="229,140 195,120 243,148 182,150 "/>
<polygon fill="#e1e076" fill-opacity="0.000000" points="218,106 127,152 40,137 0,168 232,169 "/>
<polygon fill="#8fc6ff" fill-opacity="0.050980" points="100,167 228,169 5,169 5,154 5,87 "/>
<polygon fill="#ff1d1b" fill-opacity="0.000000" points="100,36 77,50 108,116 208,38 103,93 "/>
<polygon fill="#ff0e2b" fill-opacity="0.090196" points="172,69 141,71 115,35 114,36 146,52 "/>
<polygon fill="#9cb6e5" fill-opacity="0.137255" points="158,143 198,150 241,96 253,169 "/>
<polygon fill="#d63032" fill-opacity="0.070588" points="73,102 101,40 150,85 "/>
</g>
</svg>