<svg xmlns="http://www.w3.org/2000/svg" version="1.1" width="512" height="338">
<rect x="0" y="0" width="512" height="338" fill="#ffffff" />
<g transform="scale(2.000000) translate(0.5 0.5)">
<polygon fill="#7ceaa6" fill-opacity="0.317647" points="60,79 113,59 44,90 "/>
<polygon fill="#2d6dfd" fill-opacity="0.011765" points="105,132 177,39 168,107 163,102 "/>
<polygon fill="#4a92ff" fill-opacity="0.227451" points="69,27 45,86 99,84 88,63 0,30 "/>
<polygon fill="#98f49c" fill-opacity="0.156863" points="49,120 94,72 95,75 44,135 127,70 "/>
<polygon fill="#563f00" fill-opacity="0.380392" points="67,62 97,49 69,98 "/>
<polygon fill="#ff448b" fill-opacity="0.337255" points="112,84 182,93 81,81 29,141 133,106 "/>
<polygon fill="#8136c6" fill-opacity="0.584314" points="186,90 82,76 149,115 46,66 105,52 "/>
<polygon fill="#00ba7c" fill-opacity="0.423529" points="185,27 65,132 61,121 63,67 90,128 "/>
<polygon fill="#d25659" fill-opacity="0.023529" points="106,69 127,141 150,150 4,66 198,135 "/>
<polygon fill="#b4cd90" fill-opacity="0.137255" points="182,101 98,81 164,88 75,97 "/>
<polygon fill="#90e3cd" fill-opacity="0.200000" points="205,125 63,116 120,131 43,112 "/>
<polygon fill="#d5656a" fill-opacity="0.007843" points="79,121 5,167 110,71 5,91 111,27 "/>
<polygon fill="#ff1a94" fill-opacity="0.000000" points="69,1 92,30 46,105 "/>
<polygon fill="#4a9eee" fill-opacity="0.047059" points="194,43 202,18 161,143 "/>
<polygon fill="#c94c75" fill-opacity="0.478431" points="122,70 71,121 54,82 87,69 "/>
<polygon fill="#eb4fff" fill-opacity="0.082353" points="173,38 101,140 193,35 "/>
<polygon fill="#81c47a" fill-opacity="0.000000" points="249,38 113,116 254,124 "/>
<polygon fill="#d488bb" fill-opacity="0.007843" points="199,155 126,40 102,91 147,3 94,96 "/>
<polygon fill="#fbb1ad" fill-opacity="0.000000" points="193,165 174,160 224,59 199,118 223,94 "/>
<polygon fill="#ffffc6" fill-opacity="0.000000" points="58,49 157,41 83,33 175,48 180,107 "/>
<polygon fill="#fffff5" fill-opacity="0.254902" points="64,80 49,12 80,87 131,56 68,112 "/>
<polygon fill="#90dea7" fill-opacity="0.000000" points="139,81 116,62 147,101 152,147 "/>
<polygon fill="#64ec54" fill-opacity="0.000000" points="151,45 40,138 179,52 21,131 "/>
<polygon fill="#cf5138" fill-opacity="0.137255" points="124,123 113,64 195,100 47,68 "/>
<polygon fill="#ffff39" fill-opacity="0.349020" points="112,26 71,120 117,49 134,81 "/>
<polygon fill="#312798" fill-opacity="0.294118" points="100,120 129,78 109,114 "/>
<polygon fill="#c8d6a4" fill-opacity="0.270588" points="68,124 39,121 37,121 20,118 "/>
<polygon fill="#30fef9" fill-opacity="0.215686" points="72,87 68,77 66,85 "/>
<polygon fill="#e4ce40" fill-opacity="0.258824" points="132,63 160,49 171,72 "/>
<polygon fill="#085e0c" fill-opacity="0.290196" points="127,59 89,104 69,80 "/>
<polygon fill="#ff5ec1" fill-opacity="0.035294" points="110,53 119,42 109,59 108,84 "/>
<polygon fill="#2a85a4" fill-opacity="0.043137" points="144,121 90,109 62,114 "/>
<polygon fill="#faa2dc" fill-opacity="0.294118" points="137,74 75,91 64,96 "/>
<polygon fill="#14573b" fill-opacity="0.000000" points="107,123 174,136 168,133 121,131 208,38 "/>
<polygon fill="#c1d4ef" fill-opacity="0.458824" points="28,4 61,40 24,22 "/>
<polygon fill="#30e5c7" fill-opacity="0.011765" points="29,48 4,26 44,158 151,31 31,146 "/>
<polygon fill="#5734b9" fill-opacity="0.223529" points="228,7 114,115 82,104 124,87 66,153 "/>
<polygon fill="#ba5337" fill-opacity="0.286275" points="104,65 98,63 203,37 82,64 189,103 "/>
<polygon fill="#e45e1a" fill-opacity="0.192157" points="61,100 177,103 35,0 "/>
<polygon fill="#d15a75" fill-opacity="0.172549" points="102,116 50,82 216,26 0,0 "/>
<polygon fill="#a17e7d" fill-opacity="0.082353" points="97,54 138,65 148,61 "/>
<polygon fill="#ffffb0" fill-opacity="0.294118" points="168,50 78,96 113,119 196,24 "/>
<polygon fill="#9898fc" fill-opacity="0.000000" points="106,63 126,82 179,49 105,64 "/>
<polygon fill="#bb49c3" fill-opacity="0.003922" points="99,109 123,45 121,66 "/>
<polygon fill="#beb2e4" fill-opacity="0.294118" points="167,38 113,116 189,32 117,118 "/>
<polygon fill="#a135b2" fill-opacity="0.239216" points="65,3 97,20 128,137 99,1 50,22 "/>
<polygon fill="#a4b692" fill-opacity="0.356863" points="32,14 111,31 33,6 "/>
<polygon fill="#7cff86" fill-opacity="0.294118" points="52,127 191,109 113,67 171,76 "/>
<polygon fill="#ceffff" fill-opacity="0.156863" points="187,101 68,121 47,76 192,85 "/>
<polygon fill="#76d61b" fill-opacity="0.125490" points="105,57 96,77 96,89 166,81 44,92 "/>
<polygon fill="#91e1ff" fill-opacity="0.282353" points="38,48 27,9 85,47 63,58 "/>
<polygon fill="#08a526" fill-opacity="0.694118" points="167,59 84,62 139,116 "/>
<polygon fill="#cd0056" fill-opacity="0.286275" points="140,130 46,80 118,89 "/>
<polygon fill="#00b500" fill-opacity="0.450980" points="63,91 66,75 88,119 147,89 133,108 "/>
<polygon fill="#92ff17" fill-opacity="0.000000" points="186,15 226,11 62,28 "/>
<polygon fill="#deb3d5" fill-opacity="0.278431" points="7,16 68,68 199,117 "/>
<polygon fill="#763746" fill-opacity="0.133333" points="54,118 141,119 108,76 21,156 30,125 "/>
<polygon fill="#b76975" fill-opacity="0.129412" points="240,116 181,166 244,157 235,69 "/>
<polygon fill="#19bde3" fill-opacity="0.211765" points="255,142 58,61 22,6 95,11 237,158 "/>
<polygon fill="#8b9cff" fill-opacity="0.000000" points="42,117 109,102 89,96 93,90 169,103 "/>
<polygon fill="#cfbfff" fill-opacity="0.294118" points="96,97 2,163 93,64 185,54 66,133 "/>
<polygon fill="#ffa9ff" fill-opacity="0.117647" points="144,148 168,133 220,101 "/>
<polygon fill="#b195ff" fill-opacity="0.000000" points="45,142 224,12 106,111 74,64 101,27 "/>
<polygon fill="#87ffed" fill-opacity="0.184314" points="22,37 95,73 216,130 "/>
<polygon fill="#bd93a4" fill-opacity="0.000000" points="95,107 120,52 49,54 158,49 "/>
<polygon fill="#9481e0" fill-opacity="0.011765" points="83,61 160,99 120,56 120,117 146,77 "/>
<polygon fill="#98e918" fill-opacity="0.000000" points="127,80 157,77 128,135 149,57 113,60 "/>
<polygon fill="#ffffff" fill-opacity="0.505882" points="235,30 236,131 105,166 25,6 "/>
<polygon fill="#25b06e" fill-opacity="0.000000" points="132,63 210,123 45,9 158,76 64,122 "/>
<polygon fill="#973c03" fill-opacity="0.352941" points="170,60 124,55 89,103 "/>
<polygon fill="#ffffff" fill-opacity="0.247059" points="229,9 38,118 150,124 "/>
<polygon fill="#db805b" fill-opacity="0.019608" points="172,28 156,28 22,22 "/>
<polygon fill="#ffea67" fill-opacity="0.015686" points="126,54 130,63 197,94 103,48 "/>
<polygon fill="#134282" fill-opacity="0.000000" points="168,109 204,80 148,126 "/>
<polygon fill="#0fffdb" fill-opacity="0.098039" points="63,111 233,89 60,102 243,109 52,116 "/>
<polygon fill="#a87e7d" fill-opacity="0.000000" points="174,22 14,3 21,55 121,54 "/>
<polygon fill="#7e846d" fill-opacity="0.129412" points="109,83 153,161 83,15 118,151 125,92 "/>
<polygon fill="#ffffff" fill-opacity="0.619608" points="42,32 86,118 219,15 "/>
<polygon fill="#ffffff" fill-opacity="0.631373" points="242,46 134,4 213,162 "/>
<polygon fill="#ff837d" fill-opacity="0.062745" points="117,131 85,33 56,139 158,77 "/>
<polygon fill="#bd2fd7" fill-opacity="0.000000" points="110,47 177,93 161,85 228,99 49,58 "/>
<polygon fill="#737d56" fill-opacity="0.462745" points="119,43 30,86 169,67 181,79 "/>
<polygon fill="#ff5bce" fill-opacity="0.200000" points="124,67 151,120 166,110 119,60 "/>
<polygon fill="#06cc0e" fill-opacity="0.294118" points="122,79 135,79 72,125 34,46 "/>
<polygon fill="#ff9554" fill-opacity="0.000000" points="39,111 119,13 63,94 78,116 122,52 "/>
<polygon fill="#e33bd8" fill-opacity="0.572549" points="96,46 96,72 101,96 135,51 "/>
<polygon fill="#502347" fill-opacity="0.000000" points="121,126 8,9 96,121 79,80 "/>
<polygon fill="#39fff7" fill-opacity="0.000000" points="184,68 2,110 11,145 149,66 "/>
<polygon fill="#fbffbd" fill-opacity="0.298039" points="66,96 69,102 47,139 "/>
<polygon fill="#714428" fill-opacity="0.294118" points="84,137 37,146 206,127 120,145 "/>
<polygon fill="#5a9011" fill-opacity="0.345098" points="75,117 113,108 188,77 36,137 75,91 "/>
<polygon fill="#1cf8ff" fill-opacity="0.000000" points="25,102 157,113 43,124 148,34 "/>
<polygon fill="#6dfa9f" fill-opacity="0.156863" points="29,105 133,123 97,127 219,166 "/>
<polygon fill="#57676c" fill-opacity="0.294118" points="119,124 123,70 86,97 142,104 "/>
<polygon fill="#ad6d00" fill-opacity="0.556863" points="69,86 131,44 133,131 94,42 134,52 "/>
<polygon fill="#7b0500" fill-opacity="0.337255" points="143,117 182,85 53,126 83,118 43,48 "/>
<polygon fill="#9d9ed5" fill-opacity="0.196078" points="103,43 95,75 97,24 3,4 "/>
<polygon fill="#432e3a" fill-opacity="0.203922" points="95,56 113,63 200,112 "/>
<polygon fill="#947981" fill-opacity="0.000000" points="126,71 131,126 185,60 "/>
<polygon fill="#48bbb3" fill-opacity="0.321569" points="3,88 8,8 14,2 51,48 "/>
<polygon fill="#a6ffa3" fill-opacity="0.000000" points="224,99 234,86 55,39 252,95 "/>
<polygon fill="#9870f2" fill-opacity="0.113725" points="7,31 177,118 161,137 "/>
<polygon fill="#b726ff" fill-opacity="0.286275" points="198,116 14,104 213,127 88,121 "/>
<polygon fill="#fcee09" fill-opacity="0.396078" points="154,131 215,143 25,105 "/>
<polygon fill="#c157ff" fill-opacity="0.015686" points="164,144 172,137 222,99 "/>
<polygon fill="#ffff77" fill-opacity="0.188235" points="158,68 56,58 179,91 41,117 "/>
<polygon fill="#a7e739" fill-opacity="0.278431" points="190,130 113,122 70,118 20,154 76,116 "/>
<polygon fill="#56c6da" fill-opacity="0.058824" points="80,93 101,138 7,25 75,127 100,75 "/>
<polygon fill="#f3ffff" fill-opacity="1.000000" points="169,138 189,20 72,110 "/>
<polygon fill="#a98861" fill-opacity="0.117647" points="175,62 123,45 69,62 74,96 187,68 "/>
<polygon fill="#9899ff" fill-opacity="0.286275" points="109,116 111,138 127,132 148,11 "/>
<polygon fill="#fcbb42" fill-opacity="0.133333" points="157,86 116,57 177,54 "/>
<polygon fill="#fff092" fill-opacity="0.098039" points="125,83 110,62 152,107 3,29 39,68 "/>
<polygon fill="#930aff" fill-opacity="0.000000" points="119,50 141,84 24,79 "/>
<polygon fill="#702aff" fill-opacity="0.043137" points="95,89 19,165 78,64 147,89 88,110 "/>
<polygon fill="#aa14a7" fill-opacity="0.643137" points="73,130 175,91 118,48 89,47 "/>
<polygon fill="#deffff" fill-opacity="0.631373" points="218,131 60,154 33,62 "/>
<polygon fill="#43ffc6" fill-opacity="0.000000" points="213,0 75,39 177,119 19,5 "/>
<polygon fill="#d3e4f7" fill-opacity="0.145098" points="42,91 104,136 205,161 "/>
<polygon fill="#dbffeb" fill-opacity="0.282353" points="115,32 233,5 227,59 254,12 "/>
<polygon fill="#5695a5" fill-opacity="0.211765" points="24,99 147,65 17,93 157,56 "/>
<polygon fill="#b80943" fill-opacity="0.294118" points="72,124 116,42 152,70 "/>
<polygon fill="#61955f" fill-opacity="0.223529" points="157,84 66,59 175,65 235,73 194,54 "/>
<polygon fill="#699bfa" fill-opacity="0.000000" points="2,34 77,72 63,118 123,45 124,72 "/>
<polygon fill="#ffff81" fill-opacity="0.000000" points="108,81 183,112 189,99 40,60 "/>
<polygon fill="#f75954" fill-opacity="0.039216" points="90,106 73,43 185,40 "/>
<polygon fill="#ff926d" fill-opacity="0.125490" points="80,88 116,118 24,149 "/>
<polygon fill="#70f1eb" fill-opacity="0.000000" points="245,132 89,46 117,64 "/>
<polygon fill="#ffffff" fill-opacity="0.294118" points="230,23 212,165 208,144 114,157 "/>
<polygon fill="#000064" fill-opacity="0.341176" points="86,95 79,69 196,78 27,143 "/>
<polygon fill="#acffff" fill-opacity="0.627451" points="142,137 212,29 171,113 "/>
<polygon fill="#007ee0" fill-opacity="0.180392" points="137,107 47,84 111,53 89,49 "/>
<polygon fill="#b83000" fill-opacity="0.266667" points="107,46 87,111 36,22 84,118 "/>
<polygon fill="#b0f5bf" fill-opacity="0.125490" points="186,113 38,25 128,70 245,160 "/>
<polygon fill="#d9ffcb" fill-opacity="0.352941" points="32,54 93,158 55,67 21,5 "/>
<polygon fill="#ffefbd" fill-opacity="0.282353" points="175,25 122,126 89,21 115,93 117,132 "/>
<polygon fill="#ff737a" fill-opacity="0.000000" points="182,7 70,113 106,58 78,21 159,122 "/>
<polygon fill="#bbff83" fill-opacity="0.000000" points="119,60 212,64 168,50 37,112 168,41 "/>
<polygon fill="#ffe1ff" fill-opacity="0.423529" points="62,154 71,14 179,155 174,3 11,42 "/>
<polygon fill="#ff7cca" fill-opacity="0.274510" points="118,95 164,46 142,48 156,19 "/>
<polygon fill="#fff0ab" fill-opacity="0.250980" points="232,10 27,32 81,21 "/>
<polygon fill="#5d6748" fill-opacity="0.000000" points="134,52 129,106 47,81 "/>
<polygon fill="#6a74ff" fill-opacity="0.000000" points="82,31 160,78 212,115 "/>
<polygon fill="#459db3" fill-opacity="0.019608" points="178,29 147,103 97,85 24,48 85,94 "/>
<polygon fill="#99acef" fill-opacity="0.109804" points="164,145 125,61 115,45 "/>
<polygon fill="#0016ce" fill-opacity="0.105882" points="48,92 114,119 136,63 177,52 "/>
<polygon fill="#4a1c32" fill-opacity="0.054902" points="84,94 175,54 52,61 56,95 "/>
<polygon fill="#ffbcff" fill-opacity="0.000000" points="106,77 164,137 132,101 204,147 "/>
<polygon fill="#140000" fill-opacity="0.568627" points="65,87 81,47 131,43 "/>
<polygon fill="#6e1a48" fill-opacity="0.000000" points="208,148 151,36 174,77 151,21 "/>
<polygon fill="#2934e4" fill-opacity="0.000000" points="11,48 105,0 20,51 248,152 45,65 "/>
<polygon fill="#87923c" fill-opacity="0.509804" points="122,111 90,114 42,46 "/>
<polygon fill="#ab258e" fill-opacity="0.050980" points="1,25 162,57 135,38 145,111 59,15 "/>
<polygon fill="#ff2f58" fill-opacity="0.223529" points="122,65 87,41 110,40 135,119 92,62 "/>
<polygon fill="#b1fffa" fill-opacity="0.019608" points="102,77 57,8 123,4 19,1 95,82 "/>
<polygon fill="#000060" fill-opacity="0.325490" points="105,105 72,86 104,57 139,61 "/>
<polygon fill="#5cbd8b" fill-opacity="0.066667" points="98,81 48,147 127,71 135,74 "/>
<polygon fill="#ffd2aa" fill-opacity="0.223529" points="28,110 101,38 153,122 143,13 8,128 "/>
<polygon fill="#f5f272" fill-opacity="0.023529" points="102,36 243,154 149,45 124,43 "/>
<polygon fill="#6dff65" fill-opacity="0.098039" points="195,11 219,163 197,129 255,57 211,109 "/>
<polygon fill="#c35dff" fill-opacity="0.149020" points="198,10 49,113 217,15 249,12 72,101 "/>
<polygon fill="#ff5511" fill-opacity="0.364706" points="99,31 113,73 103,118 153,78 "/>
<polygon fill="#5f8260" fill-opacity="0.294118" points="131,119 157,66 70,134 52,103 "/>
<polygon fill="#81deff" fill-opacity="0.156863" points="200,92 253,132 105,20 "/>
<polygon fill="#b3aec8" fill-opacity="0.086275" points="81,51 115,84 119,37 138,89 139,54 "/>
<polygon fill="#6fcef8" fill-opacity="0.239216" points="200,157 190,56 185,121 124,28 171,72 "/>
<polygon fill="#e1113d" fill-opacity="0.388235" points="117,115 79,73 56,112 74,94 154,72 "/>
<polygon fill="#af9241" fill-opacity="0.125490" points="50,149 69,118 32,162 109,65 "/>
<polygon fill="#a30d86" fill-opacity="0.101961" points="66,78 92,61 163,49 116,112 "/>
<polygon fill="#217ceb" fill-opacity="0.133333" points="181,135 169,135 116,85 41,25 71,74 "/>
<polygon fill="#e18293" fill-opacity="0.000000" points="186,74 215,157 223,135 159,70 224,146 "/>
<polygon fill="#42bc7f" fill-opacity="0.094118" points="170,67 133,54 111,111 53,137 "/>
<polygon fill="#58ffef" fill-opacity="0.294118" points="81,92 45,146 50,123 105,157 44,88 "/>
<polygon fill="#3ffaa7" fill-opacity="0.262745" points="50,81 152,105 83,90 "/>
<polygon fill="#97ef64" fill-opacity="0.274510" points="204,69 103,103 146,90 144,99 112,92 "/>
<polygon fill="#1781d3" fill-opacity="0.000000" points="74,135 93,25 105,17 97,98 "/>
<polygon fill="#542700" fill-opacity="0.403922" points="73,72 146,117 80,46 76,135 "/>
<polygon fill="#ffff9e" fill-opacity="0.376471" points="167,122 208,163 72,32 "/>
<polygon fill="#8c003f" fill-opacity="0.454902" points="98,53 223,136 69,34 146,70 45,138 "/>
<polygon fill="#84e6d8" fill-opacity="0.207843" points="63,71 185,25 90,59 "/>
<polygon fill="#ff0c08" fill-opacity="0.227451" points="58,59 188,103 125,33 "/>
<polygon fill="#55006c" fill-opacity="0.066667" points="190,59 65,130 89,112 "/>
<polygon fill="#140044" fill-opacity="0.129412" points="109,122 58,121 62,76 143,95 178,25 "/>
<polygon fill="#bdffed" fill-opacity="0.290196" points="158,168 32,55 198,24 179,22 11,58 "/>
<polygon fill="#bc8200" fill-opacity="0.160784" points="66,117 108,36 174,85 "/>
<polygon fill="#ffff8e" fill-opacity="0.082353" points="184,130 204,130 89,86 "/>
<polygon fill="#931c00" fill-opacity="0.294118" points="212,74 59,132 21,135 "/>
<polygon fill="#71d2ff" fill-opacity="0.168627" points="140,59 83,90 96,103 61,145 11,139 "/>
<polygon fill="#ff3bff" fill-opacity="0.309804" points="133,34 185,0 138,49 137,44 176,29 "/>
<polygon fill="#1f679f" fill-opacity="0.050980" points="131,96 31,147 20,158 55,119 "/>
<polygon fill="#df0038" fill-opacity="0.188235" points="87,96 64,72 201,52 "/>
<polygon fill="#ff3694" fill-opacity="0.141176" points="86,145 100,151 117,164 "/>
<polygon fill="#451f89" fill-opacity="0.133333" points="252,97 157,87 30,61 198,71 64,70 "/>
<polygon fill="#415b25" fill-opacity="0.050980" points="91,54 22,104 129,92 "/>
<polygon fill="#ffffff" fill-opacity="0.384314" points="33,70 27,108 149,65 229,61 254,133 "/>
<polygon fill="#eaff88" fill-opacity="0.117647" points="46,63 106,2 6,31 "/>
<polygon fill="#60695f" fill-opacity="0.105882" points="134,167 239,166 230,145 161,156 143,122 "/>
<polygon fill="#fff05c" fill-opacity="0.129412" points="114,86 75,134 31,135 18,153 36,117 "/>
<polygon fill="#9f6b7b" fill-opacity="0.427451" points="49,85 149,69 101,100 181,59 "/>
<polygon fill="#6f1e49" fill-opacity="0.388235" points="149,89 82,39 119,108 "/>
</g>
</svg>